<svg height="512" viewBox="0 0 64 64" width="512" xmlns="http://www.w3.org/2000/svg"><g id="airplane-air-transportation-travel-fly"><path d="m7 41-4-22 8 2 3 6 32.41-4.15a9.98 9.98 0 0 1 9.44 4.15l4.67 8a4 4 0 0 1 -3.46 6z" fill="#fee9ab"/><path d="m57.06 41h-.54a3.924 3.924 0 0 0 0-4l-4.67-8a9.98 9.98 0 0 0 -9.44-4.15l-32.41 4.15-3-6-3.43-.86-.57-3.14 8 2 3 6 32.41-4.15a9.98 9.98 0 0 1 9.44 4.15l4.67 8a4 4 0 0 1 -3.46 6z" fill="#ffd422"/><path d="m58.77 32h-5.17l-1.75-3a9.676 9.676 0 0 0 -1.88-2h5.88z" fill="#ffd422"/><path d="m58.79 32h-9.79v-5h6.85q.255.36.48.75z" fill="#46f8ff"/><path d="m58.79 32h-5.19l-1.75-3a9.676 9.676 0 0 0 -1.88-2h5.88q.255.36.48.75z" fill="#00d7df"/><path d="m39 31h4v4h-4z" fill="#46f8ff"/><path d="m40 39-1.87 2-12.13 13h-9l8.67-13 1.33-2z" fill="#c0ab91"/><path d="m40 39-1.87 2-12.13 13h-6l12.13-13 1.87-2z" fill="#a78966"/><path d="m27 10 9.42 14.13-10.8 1.38-8.62-15.51z" fill="#c0ab91"/><path d="m36.42 24.13-10.8 1.38-.4-.72 5.2-.66-9.42-14.13h6z" fill="#a78966"/><path d="m29 31h4v4h-4z" fill="#46f8ff"/><path d="m19 31h4v4h-4z" fill="#46f8ff"/><g fill="#00d7df"><path d="m41 31h2v4h-2z"/><path d="m31 31h2v4h-2z"/><path d="m21 31h2v4h-2z"/></g><path d="m61.39 34.5-4.19-7.25a10.979 10.979 0 0 0 -10.92-5.39l-9.37 1.2-9.08-13.61a1 1 0 0 0 -.83-.45h-10a1.012 1.012 0 0 0 -.86.49.994.994 0 0 0 -.01 1l7.9 14.22-9.45 1.21-2.69-5.37a.977.977 0 0 0 -.65-.52l-8-2a1 1 0 0 0 -1.22 1.15l4 22a1 1 0 0 0 .98.82h16.8l-7.63 11.45a.963.963 0 0 0 -.05 1.02.984.984 0 0 0 .88.53h9a1.007 1.007 0 0 0 .73-.32l11.84-12.68h18.49a5 5 0 0 0 4.33-7.5zm-6.1-6.5c.06.09.12.16.17.25l1.59 2.75h-7.05v-3zm-36.59-17h7.76l8.23 12.34-2.7.35-5.82.74zm6.87 42h-6.7l8.67-13h10.16zm34.09-14.51a2.951 2.951 0 0 1 -2.6 1.51h-16.62l.29-.32a1 1 0 0 0 .19-1.08 1.011 1.011 0 0 0 -.92-.6h-13a1 1 0 0 0 -.83.45l-1.04 1.55h-17.3l-3.57-19.65 6.05 1.51 2.8 5.59a1 1 0 0 0 1.02.54l32.41-4.15a8.941 8.941 0 0 1 7.06 2.16h-4.6a1 1 0 0 0 -1 1v5a1 1 0 0 0 1 1h9.21l1.45 2.5a2.962 2.962 0 0 1 0 2.99z"/><path d="m23 30h-4a1 1 0 0 0 -1 1v4a1 1 0 0 0 1 1h4a1 1 0 0 0 1-1v-4a1 1 0 0 0 -1-1zm-1 4h-2v-2h2z"/><path d="m33 30h-4a1 1 0 0 0 -1 1v4a1 1 0 0 0 1 1h4a1 1 0 0 0 1-1v-4a1 1 0 0 0 -1-1zm-1 4h-2v-2h2z"/><path d="m43 30h-4a1 1 0 0 0 -1 1v4a1 1 0 0 0 1 1h4a1 1 0 0 0 1-1v-4a1 1 0 0 0 -1-1zm-1 4h-2v-2h2z"/></g></svg>