<svg height="512" viewBox="0 0 64 64" width="512" xmlns="http://www.w3.org/2000/svg"><g id="backpack-baggage-tods-bag-travel"><path d="m9 13h46v18h-46z" fill="#ffb655"/><path d="m12 31h40v22h-40z" fill="#a78966"/><path d="m41 53h4v8h-4z" fill="#fee9ab"/><path d="m41 27h4v8h-4z" fill="#898890"/><path d="m40 11v2h-4v-2a4 4 0 0 0 -8 0v2h-4v-2a8 8 0 1 1 16 0z" fill="#898890"/><path d="m40 11v2h-2v-2a7.992 7.992 0 0 0 -7-7.94 8.262 8.262 0 0 1 1-.06 7.989 7.989 0 0 1 8 8z" fill="#57565c"/><path d="m26 19h12v6h-12z" fill="#bdfdff"/><path d="m19 27h4v8h-4z" fill="#898890"/><path d="m23 53-2 8h-4l2-8z" fill="#fee9ab"/><path d="m23 53-2 8h-2l2-8z" fill="#ffd422"/><path d="m50 13h5v18h-5z" fill="#ff9811"/><path d="m47 31h5v22h-5z" fill="#806749"/><path d="m43 27h2v8h-2z" fill="#57565c"/><path d="m21 27h2v8h-2z" fill="#57565c"/><path d="m35 19h3v6h-3z" fill="#46f8ff"/><path d="m43 53h2v8h-2z" fill="#ffd422"/><path d="m55 12h-14v-1a9 9 0 0 0 -18 0v1h-14a1 1 0 0 0 -1 1v18a1 1 0 0 0 1 1h2v21a1 1 0 0 0 1 1h5.72l-1.69 6.76a1.022 1.022 0 0 0 .18.86 1 1 0 0 0 .79.38h4a1 1 0 0 0 .97-.76l1.81-7.24h16.22v7a1 1 0 0 0 1 1h4a1 1 0 0 0 1-1v-7h6a1 1 0 0 0 1-1v-21h2a1 1 0 0 0 1-1v-18a1 1 0 0 0 -1-1zm-30-1a7 7 0 0 1 14 0v1h-2v-1a5 5 0 0 0 -10 0v1h-2zm10 0v1h-6v-1a3 3 0 0 1 6 0zm-14.78 49h-1.94l1.5-6h1.94zm23.78 0h-2v-6h2zm7-8h-38v-20h5v3a1 1 0 0 0 1 1h4a1 1 0 0 0 1-1v-3h16v3a1 1 0 0 0 1 1h4a1 1 0 0 0 1-1v-3h5zm-31-18v-6h2v6zm22 0v-6h2v6zm12-4h-8v-3a1 1 0 0 0 -1-1h-4a1 1 0 0 0 -1 1v3h-16v-3a1 1 0 0 0 -1-1h-4a1 1 0 0 0 -1 1v3h-8v-16h44z"/><path d="m38 18h-12a1 1 0 0 0 -1 1v6a1 1 0 0 0 1 1h12a1 1 0 0 0 1-1v-6a1 1 0 0 0 -1-1zm-1 6h-10v-4h10z"/></g></svg>