<svg height="512" viewBox="0 0 64 64" width="512" xmlns="http://www.w3.org/2000/svg"><g id="bed-hotel-pillow-sleep-rest"><path d="m61 47v8h-52v-22h16v10a4 4 0 0 0 4 4z" fill="#ffb655"/><path d="m61 37v10h-32a4 4 0 0 1 -4-4v-10h32a4 4 0 0 1 4 4z" fill="#e0e0e2"/><path d="m61 37v10h-4v-10a4 4 0 0 0 -4-4h4a4 4 0 0 1 4 4z" fill="#c6c5ca"/><path d="m52 55h6v6h-6z" fill="#a78966"/><rect fill="#e0e0e2" height="8" rx="2" width="12" x="9" y="25"/><path d="m21 27v4a2.006 2.006 0 0 1 -2 2h-4a2.006 2.006 0 0 0 2-2v-4a2.006 2.006 0 0 0 -2-2h4a2.006 2.006 0 0 1 2 2z" fill="#c6c5ca"/><path d="m3 11h6v50h-6z" fill="#a78966"/><path d="m6 11h3v50h-3z" fill="#806749"/><path d="m57 47h4v8h-4z" fill="#ff9811"/><path d="m55 55h3v6h-3z" fill="#806749"/><path d="m57 32h-35.18a3 3 0 0 0 .18-1v-4a3.009 3.009 0 0 0 -3-3h-8a3 3 0 0 0 -1 .18v-13.18a1 1 0 0 0 -1-1h-6a1 1 0 0 0 -1 1v50a1 1 0 0 0 1 1h6a1 1 0 0 0 1-1v-5h41v5a1 1 0 0 0 1 1h6a1 1 0 0 0 1-1v-5h2a1 1 0 0 0 1-1v-18a5 5 0 0 0 -5-5zm-49 28h-4v-48h4zm2-33a1 1 0 0 1 1-1h8a1 1 0 0 1 1 1v4a1 1 0 0 1 -1 1h-8a1 1 0 0 1 -1-1zm47 33h-4v-4h4zm3-6h-50v-20h14v9a5 5 0 0 0 5 5h31zm0-8h-31a3.009 3.009 0 0 1 -3-3v-9h31a3.009 3.009 0 0 1 3 3z"/></g></svg>