<svg height="512" viewBox="0 0 64 64" width="512" xmlns="http://www.w3.org/2000/svg"><g id="briefcase-document-holding-keep-important"><path d="m61 34v25a2.006 2.006 0 0 1 -2 2h-54a2.006 2.006 0 0 1 -2-2v-25z" fill="#a78966"/><path d="m61 22v12h-58v-12a2.006 2.006 0 0 1 2-2h54a2.006 2.006 0 0 1 2 2z" fill="#ffb655"/><path d="m61 34v25a2.006 2.006 0 0 1 -2 2h-5a2.006 2.006 0 0 0 2-2v-25z" fill="#806749"/><path d="m61 22v12h-5v-12a2.006 2.006 0 0 0 -2-2h5a2.006 2.006 0 0 1 2 2z" fill="#ff9811"/><path d="m45 28h6v12h-6z" fill="#898890"/><path d="m51 20h-4a13 13 0 0 0 -13-13h-4a13.008 13.008 0 0 0 -13 13h-4a17.024 17.024 0 0 1 17-17h4a17.024 17.024 0 0 1 17 17z" fill="#787680"/><path d="m51 20h-2a17.024 17.024 0 0 0 -17-17h2a17.024 17.024 0 0 1 17 17z" fill="#3e3d42"/><path d="m38 34-1 6h-10l-1-6z" fill="#ffc477"/><path d="m38 34-1 6h-4l1-6z" fill="#ffa733"/><path d="m13 28h6v12h-6z" fill="#898890"/><path d="m48 28h3v12h-3z" fill="#57565c"/><path d="m16 28h3v12h-3z" fill="#57565c"/><path d="m59 19h-7.05a18 18 0 0 0 -17.95-17h-4a18 18 0 0 0 -17.95 17h-7.05a3.009 3.009 0 0 0 -3 3v37a3.009 3.009 0 0 0 3 3h54a3.009 3.009 0 0 0 3-3v-37a3.009 3.009 0 0 0 -3-3zm-29-15h4a16.008 16.008 0 0 1 15.95 15h-2a14.015 14.015 0 0 0 -13.95-13h-4a14.015 14.015 0 0 0 -13.95 13h-2a16.008 16.008 0 0 1 15.95-15zm15.96 15h-27.92a12.018 12.018 0 0 1 11.96-11h4a12.018 12.018 0 0 1 11.96 11zm14.04 40a1 1 0 0 1 -1 1h-54a1 1 0 0 1 -1-1v-24h8v5a1 1 0 0 0 1 1h6a1 1 0 0 0 1-1v-5h5.15l.86 5.16a1 1 0 0 0 .99.84h10a1 1 0 0 0 .99-.84l.86-5.16h5.15v5a1 1 0 0 0 1 1h6a1 1 0 0 0 1-1v-5h8zm-46-20v-10h4v10zm13.18-4h9.64l-.67 4h-8.3zm18.82 4v-10h4v10zm14-6h-8v-5a1 1 0 0 0 -1-1h-6a1 1 0 0 0 -1 1v5h-24v-5a1 1 0 0 0 -1-1h-6a1 1 0 0 0 -1 1v5h-8v-11a1 1 0 0 1 1-1h54a1 1 0 0 1 1 1z"/></g></svg>