<svg height="512" viewBox="0 0 64 64" width="512" xmlns="http://www.w3.org/2000/svg"><g id="calendar-date-check-excited-days"><path d="m52 55h9v6h-9z" fill="#e0e0e2"/><path d="m52 49h9v6h-9z" fill="#d7fc7e"/><path d="m52 43h9v6h-9z" fill="#e0e0e2"/><path d="m52 37h9v6h-9z" fill="#ff3051"/><path d="m52 31h9v6h-9z" fill="#e0e0e2"/><path d="m52 25h9v6h-9z" fill="#ffeb99"/><path d="m52 19h9v6h-9z" fill="#e0e0e2"/><path d="m3 11h58v8h-58z" fill="#a78966"/><path d="m44 55h8v6h-8z" fill="#e0e0e2"/><path d="m44 49h8v6h-8z" fill="#d7fc7e"/><path d="m44 43h8v6h-8z" fill="#e0e0e2"/><path d="m44 37h8v6h-8z" fill="#ff3051"/><path d="m44 31h8v6h-8z" fill="#e0e0e2"/><path d="m44 25h8v6h-8z" fill="#ffeb99"/><path d="m44 19h8v6h-8z" fill="#e0e0e2"/><path d="m44 7h4v8h-4z" fill="#ff3051"/><path d="m36 55h8v6h-8z" fill="#e0e0e2"/><path d="m36 49h8v6h-8z" fill="#d7fc7e"/><path d="m36 43h8v6h-8z" fill="#e0e0e2"/><path d="m36 37h8v6h-8z" fill="#ff3051"/><path d="m36 31h8v6h-8z" fill="#e0e0e2"/><path d="m36 25h8v6h-8z" fill="#ffeb99"/><path d="m36 19h8v6h-8z" fill="#e0e0e2"/><path d="m28 55h8v6h-8z" fill="#e0e0e2"/><path d="m28 49h8v6h-8z" fill="#d7fc7e"/><path d="m28 43h8v6h-8z" fill="#e0e0e2"/><path d="m28 37h8v6h-8z" fill="#ff3051"/><path d="m28 31h8v6h-8z" fill="#e0e0e2"/><path d="m28 25h8v6h-8z" fill="#ffeb99"/><path d="m28 19h8v6h-8z" fill="#e0e0e2"/><path d="m20 55h8v6h-8z" fill="#e0e0e2"/><path d="m20 49h8v6h-8z" fill="#d7fc7e"/><path d="m20 43h8v6h-8z" fill="#e0e0e2"/><path d="m20 37h8v6h-8z" fill="#ff3051"/><path d="m20 31h8v6h-8z" fill="#e0e0e2"/><path d="m20 25h8v6h-8z" fill="#ffeb99"/><path d="m20 19h8v6h-8z" fill="#e0e0e2"/><path d="m12 55h8v6h-8z" fill="#e0e0e2"/><path d="m12 49h8v6h-8z" fill="#d7fc7e"/><path d="m12 43h8v6h-8z" fill="#e0e0e2"/><path d="m12 37h8v6h-8z" fill="#ff3051"/><path d="m12 31h8v6h-8z" fill="#e0e0e2"/><path d="m12 25h8v6h-8z" fill="#ffeb99"/><path d="m12 19h8v6h-8z" fill="#e0e0e2"/><path d="m16 7h4v8h-4z" fill="#ff3051"/><path d="m3 55h9v6h-9z" fill="#e0e0e2"/><path d="m3 49h9v6h-9z" fill="#d7fc7e"/><path d="m3 43h9v6h-9z" fill="#e0e0e2"/><path d="m3 37h9v6h-9z" fill="#ff3051"/><path d="m3 31h9v6h-9z" fill="#e0e0e2"/><path d="m3 25h9v6h-9z" fill="#ffeb99"/><path d="m3 19h9v6h-9z" fill="#e0e0e2"/><path d="m55 11h6v8h-6z" fill="#806749"/><path d="m55 19h6v6h-6z" fill="#c6c5ca"/><path d="m55 31h6v6h-6z" fill="#c6c5ca"/><path d="m55 37h6v6h-6z" fill="#cd2a00"/><path d="m55 43h6v6h-6z" fill="#c6c5ca"/><path d="m55 55h6v6h-6z" fill="#c6c5ca"/><path d="m55 49h6v6h-6z" fill="#ffd422"/><path d="m55 25h6v6h-6z" fill="#ffd422"/><path d="m46 7h2v8h-2z" fill="#cd2a00"/><path d="m18 7h2v8h-2z" fill="#cd2a00"/><path d="m61 10h-12v-3a1 1 0 0 0 -1-1h-4a1 1 0 0 0 -1 1v3h-22v-3a1 1 0 0 0 -1-1h-4a1 1 0 0 0 -1 1v3h-12a1 1 0 0 0 -1 1v50a1 1 0 0 0 1 1h58a1 1 0 0 0 1-1v-50a1 1 0 0 0 -1-1zm-16-2h2v6h-2zm-28 0h2v6h-2zm-6 52h-7v-4h7zm0-6h-7v-4h7zm0-6h-7v-4h7zm0-6h-7v-4h7zm0-6h-7v-4h7zm0-6h-7v-4h7zm0-6h-7v-4h7zm8 36h-6v-4h6zm0-6h-6v-4h6zm0-6h-6v-4h6zm0-6h-6v-4h6zm0-6h-6v-4h6zm0-6h-6v-4h6zm0-6h-6v-4h6zm8 36h-6v-4h6zm0-6h-6v-4h6zm0-6h-6v-4h6zm0-6h-6v-4h6zm0-6h-6v-4h6zm0-6h-6v-4h6zm0-6h-6v-4h6zm8 36h-6v-4h6zm0-6h-6v-4h6zm0-6h-6v-4h6zm0-6h-6v-4h6zm0-6h-6v-4h6zm0-6h-6v-4h6zm0-6h-6v-4h6zm8 36h-6v-4h6zm0-6h-6v-4h6zm0-6h-6v-4h6zm0-6h-6v-4h6zm0-6h-6v-4h6zm0-6h-6v-4h6zm0-6h-6v-4h6zm8 36h-6v-4h6zm0-6h-6v-4h6zm0-6h-6v-4h6zm0-6h-6v-4h6zm0-6h-6v-4h6zm0-6h-6v-4h6zm0-6h-6v-4h6zm9 36h-7v-4h7zm0-6h-7v-4h7zm0-6h-7v-4h7zm0-6h-7v-4h7zm0-6h-7v-4h7zm0-6h-7v-4h7zm0-6h-7v-4h7zm0-6h-56v-6h11v3a1 1 0 0 0 1 1h4a1 1 0 0 0 1-1v-3h22v3a1 1 0 0 0 1 1h4a1 1 0 0 0 1-1v-3h11z"/></g></svg>