<svg height="512" viewBox="0 0 64 64" width="512" xmlns="http://www.w3.org/2000/svg"><g id="camera-take-photo-memory-lens"><path d="m53 43h8v4h-8z" fill="#ffb655"/><path d="m61 32v11h-3v-11a26 26 0 0 0 -52 0v11h-3v-11a29 29 0 0 1 58 0z" fill="#806749"/><path d="m61 32v11h-2v-11a28.981 28.981 0 0 0 -28-28.97c.33-.02.66-.03 1-.03a29 29 0 0 1 29 29z" fill="#5f4d37"/><path d="m11 37h42v12h-42z" fill="#a78966"/><path d="m11 49h42v12h-42z" fill="#fee9ab"/><path d="m45 41h4v4h-4z" fill="#46f8ff"/><path d="m39 33h10v4h-10z" fill="#898890"/><circle cx="32" cy="49" fill="#898890" r="8"/><path d="m40 49a8 8 0 0 1 -8 8 8.239 8.239 0 0 1 -2-.25 8.005 8.005 0 0 0 0-15.5 8.239 8.239 0 0 1 2-.25 8 8 0 0 1 8 8z" fill="#57565c"/><circle cx="32" cy="49" fill="#c6c5ca" r="4"/><path d="m36 49a4 4 0 0 1 -4 4 3.756 3.756 0 0 1 -1.5-.3 3.988 3.988 0 0 0 0-7.4 3.756 3.756 0 0 1 1.5-.3 4 4 0 0 1 4 4z" fill="#898890"/><path d="m15 34h10v3h-10z" fill="#898890"/><path d="m17 31h6v3h-6z" fill="#ffb655"/><path d="m3 43h8v4h-8z" fill="#ffb655"/><path d="m49 37h4v12h-4z" fill="#806749"/><path d="m49 49h4v12h-4z" fill="#ffde55"/><path d="m47 41h2v4h-2z" fill="#00d7df"/><path d="m46 33h3v4h-3z" fill="#57565c"/><path d="m22 34h3v3h-3z" fill="#57565c"/><path d="m20 31h3v3h-3z" fill="#ff9811"/><path d="m32 2a30.037 30.037 0 0 0 -30 30v15a1 1 0 0 0 1 1h7v13a1 1 0 0 0 1 1h42a1 1 0 0 0 1-1v-13h7a1 1 0 0 0 1-1v-15a30.037 30.037 0 0 0 -30-30zm-22 44h-6v-2h6zm42 14h-40v-10h11.06a9 9 0 0 0 17.88 0h11.06zm-27-11a7 7 0 1 1 7 7 7.008 7.008 0 0 1 -7-7zm27-1h-11.06a9 9 0 0 0 -17.88 0h-11.06v-10h40zm-28-13v1h-8v-1zm-6-2v-1h4v1zm22 3v-2h8v2zm13 0h-3v-3a1 1 0 0 0 -1-1h-10a1 1 0 0 0 -1 1v3h-12v-2a1 1 0 0 0 -1-1h-1v-2a1 1 0 0 0 -1-1h-6a1 1 0 0 0 -1 1v2h-1a1 1 0 0 0 -1 1v2h-3a1 1 0 0 0 -1 1v5h-3v-10a25 25 0 0 1 50 0v10h-3v-5a1 1 0 0 0 -1-1zm7 10h-6v-2h6zm0-4h-1v-10a27 27 0 0 0 -54 0v10h-1v-10a28 28 0 0 1 56 0z"/><path d="m49 40h-4a1 1 0 0 0 -1 1v4a1 1 0 0 0 1 1h4a1 1 0 0 0 1-1v-4a1 1 0 0 0 -1-1zm-1 4h-2v-2h2z"/><path d="m32 44a5 5 0 1 0 5 5 5.006 5.006 0 0 0 -5-5zm0 8a3 3 0 1 1 3-3 3 3 0 0 1 -3 3z"/></g></svg>