<svg height="512" viewBox="0 0 64 64" width="512" xmlns="http://www.w3.org/2000/svg"><g id="camping-fire-tent-trip"><path d="m57 46.5v.5h-54v-.5a47.988 47.988 0 0 1 18.02-37.48 46.589 46.589 0 0 1 4.4-3.14l4.58-2.88 4.58 2.88a46.589 46.589 0 0 1 4.4 3.14 47.988 47.988 0 0 1 18.02 37.48z" fill="#a78966"/><path d="m57 46.5v.5h-5v-.5a47.988 47.988 0 0 0 -18.02-37.48 46.589 46.589 0 0 0 -4.4-3.14l-2.08-1.31 2.5-1.57 4.58 2.88a46.589 46.589 0 0 1 4.4 3.14 47.988 47.988 0 0 1 18.02 37.48z" fill="#806749"/><path d="m38.98 9.02-2.32 2.32c-.86-.81-1.75-1.58-2.68-2.32a46.589 46.589 0 0 0 -4.4-3.14l-2.08-1.31 2.5-1.57 4.58 2.88a47.376 47.376 0 0 1 4.4 3.14z" fill="#ffd422"/><path d="m61 53-6.26 4.17-2.87-2.08 3.13-2.09z" fill="#806749"/><path d="m60 61h-6l-2.39-1.74-2.87-2.09-5.74-4.17h6l2.87 2.09 2.87 2.08z" fill="#a78966"/><path d="m59 47.49v1.51a4 4 0 0 1 -4 4h-6a3.995 3.995 0 0 1 -4-4v-1.51c0-.16.01-.33.02-.49a5.971 5.971 0 0 1 1.74-3.76l.24-.24.24.24a5.993 5.993 0 0 1 1.76 4.25v-.59a7 7 0 0 1 2.05-4.95l.95-.95.95.95a7 7 0 0 1 2.05 4.95v.59a5.993 5.993 0 0 1 1.76-4.25l.24-.24.24.24a5.993 5.993 0 0 1 1.76 4.25z" fill="#ff9811"/><path d="m59 47.49v1.51a3.822 3.822 0 0 1 -.06.68 5.935 5.935 0 0 0 -1.7-3.44l-.24-.24-.24.24a5.993 5.993 0 0 0 -1.76 4.25v-.59a7 7 0 0 0 -2.05-4.95l-.95-.95-.95.95a7 7 0 0 0 -2.05 4.95v.59a5.993 5.993 0 0 0 -1.76-4.25l-.24-.24-.24.24a5.94 5.94 0 0 0 -1.7 3.42 3.522 3.522 0 0 1 -.06-.66v-1.51c0-.16.01-.33.02-.49a5.971 5.971 0 0 1 1.74-3.76l.24-.24.24.24a5.993 5.993 0 0 1 1.76 4.25v-.59a7 7 0 0 1 2.05-4.95l.95-.95.95.95a7 7 0 0 1 2.05 4.95v.59a5.993 5.993 0 0 1 1.76-4.25l.24-.24.24.24a5.993 5.993 0 0 1 1.76 4.25z" fill="#cc7400"/><path d="m55 53-3.13 2.09-2.87-2.09h3z" fill="#bddbff"/><path d="m51.61 59.26-2.61 1.74h-6l5.74-3.83z" fill="#806749"/><path d="m17 36h26v11h-26z" fill="#c6c5ca"/><path d="m41 26a2.006 2.006 0 0 1 2 2v8h-26v-8a2.006 2.006 0 0 1 2-2z" fill="#ffc477"/><path d="m39 36h4v11h-4z" fill="#898890"/><path d="m43 28v8h-4v-8a2.006 2.006 0 0 0 -2-2h4a2.006 2.006 0 0 1 2 2z" fill="#ffa733"/><path d="m40 26v4a2.006 2.006 0 0 1 -2 2h-16a2.006 2.006 0 0 1 -2-2v-4z" fill="#c6c5ca"/><path d="m40 26v4a2.006 2.006 0 0 1 -2 2h-4a2.006 2.006 0 0 0 2-2v-4z" fill="#898890"/><path d="m38.98 9.02-8.98 8.98-8.98-8.98a46.589 46.589 0 0 1 4.4-3.14l4.58-2.88 4.58 2.88a47.376 47.376 0 0 1 4.4 3.14z" fill="#fee9ab"/><path d="m38.98 9.02-2.32 2.32c-.86-.81-1.75-1.58-2.68-2.32a46.589 46.589 0 0 0 -4.4-3.14l-2.08-1.31 2.5-1.57 4.58 2.88a47.376 47.376 0 0 1 4.4 3.14z" fill="#ffd422"/><path d="m61.96 52.71a1.008 1.008 0 0 0 -.96-.71h-2.03a4.924 4.924 0 0 0 1.03-3v-1.51a6.942 6.942 0 0 0 -2.05-4.95l-.14-.14a49.181 49.181 0 0 0 -22.7-37.37l-4.58-2.88a1.011 1.011 0 0 0 -1.06 0l-4.58 2.88a48.774 48.774 0 0 0 -22.89 41.47v.5a1 1 0 0 0 1 1h41v1a4.924 4.924 0 0 0 1.03 3h-2.03a1 1 0 0 0 -.95.69 1.012 1.012 0 0 0 .36 1.12l4.58 3.33-4.54 3.03a1 1 0 0 0 .55 1.83h6a.967.967 0 0 0 .55-.17l2.03-1.35 1.83 1.33a1.036 1.036 0 0 0 .59.19h6a1 1 0 0 0 .95-.69 1.012 1.012 0 0 0 -.36-1.12l-4.1-2.98 5.06-3.38a1.006 1.006 0 0 0 .41-1.12zm-36.01-45.98 4.05-2.55 4.05 2.55c1.18.74 2.31 1.55 3.41 2.39l-7.46 7.47-7.47-7.47c1.11-.84 2.24-1.65 3.42-2.39zm16.05 39.27h-24v-9h24zm0-11h-24v-7a1 1 0 0 1 1-1v3a3.009 3.009 0 0 0 3 3h16a3.009 3.009 0 0 0 3-3v-3a1 1 0 0 1 1 1zm-21-5v-3h18v3a1 1 0 0 1 -1 1h-16a1 1 0 0 1 -1-1zm23.16 16h-.16v-18a3.009 3.009 0 0 0 -3-3h-22a3.009 3.009 0 0 0 -3 3v18h-12a46.723 46.723 0 0 1 16.95-35.64l8.34 8.35a1.014 1.014 0 0 0 1.42 0l8.33-8.33a47.179 47.179 0 0 1 16.8 32.4 5.791 5.791 0 0 0 -.59.72 8.193 8.193 0 0 0 -1.59-2.26l-.95-.95a1.008 1.008 0 0 0 -1.42 0l-.95.95a8.193 8.193 0 0 0 -1.59 2.26 6.572 6.572 0 0 0 -.8-.96l-.24-.25a1.047 1.047 0 0 0 -1.42 0l-.24.25a6.962 6.962 0 0 0 -1.89 3.46zm4.54 14h-2.4l2.41-1.61 1.15.84zm8.22 0h-2.59l-8.25-6h2.59zm-2.16-4.05-1.14-.83 1.68-1.12h2.4zm3.24-6.95a3.009 3.009 0 0 1 -3 3h-2v-2h-2v2h-2a3.009 3.009 0 0 1 -3-3v-1.51a4.994 4.994 0 0 1 1-3.01 4.972 4.972 0 0 1 1 3.01v1.51a1 1 0 0 0 2 0v-2.1a5.928 5.928 0 0 1 1.76-4.24l.24-.25.24.25a5.928 5.928 0 0 1 1.76 4.24v2.1a1 1 0 0 0 2 0v-1.51a4.994 4.994 0 0 1 1-3.01 4.972 4.972 0 0 1 1 3.01z"/></g></svg>