<svg height="512" viewBox="0 0 64 64" width="512" xmlns="http://www.w3.org/2000/svg"><g id="card-importance-peronna-profie-detailsl"><path d="m3 20h58v34h-58z" fill="#fee9ab"/><path d="m3 14h58v6h-58z" fill="#a78966"/><path d="m7 24h22v26h-22z" fill="#57a4ff"/><path d="m54 20h7v34h-7z" fill="#ffd422"/><path d="m54 14h7v6h-7z" fill="#806749"/><path d="m24 24h5v26h-5z" fill="#006df0"/><path d="m25 44v6h-14v-6a4 4 0 0 1 4-4h6a4 4 0 0 1 4 4z" fill="#7ed63e"/><path d="m25 44v6h-3v-6a4 4 0 0 0 -4-4h3a4 4 0 0 1 4 4z" fill="#4e901e"/><path d="m23.34 31.26a6 6 0 1 1 -11.34 2.74 5.47 5.47 0 0 1 .09-1h5.37a7.925 7.925 0 0 0 2.97-.57z" fill="#ffc477"/><path d="m23.34 31.26-2.91 1.17a7.925 7.925 0 0 1 -2.97.57h-5.37a6 6 0 0 1 11.25-1.74z" fill="#ffd422"/><path d="m23.34 31.26-2.59 1.04a5.981 5.981 0 0 0 -4.25-4.1 5.715 5.715 0 0 1 1.5-.2 6.024 6.024 0 0 1 5.34 3.26z" fill="#ebbf00"/><path d="m24 34a6 6 0 0 1 -6 6 6.164 6.164 0 0 1 -1.5-.19 5.985 5.985 0 0 0 4.25-7.51l2.59-1.04a5.991 5.991 0 0 1 .66 2.74z" fill="#ffa733"/><path d="m61 13h-58a1 1 0 0 0 -1 1v40a1 1 0 0 0 1 1h58a1 1 0 0 0 1-1v-40a1 1 0 0 0 -1-1zm-1 40h-56v-32h56zm0-34h-56v-4h56z"/><path d="m29 23h-22a1 1 0 0 0 -1 1v26a1 1 0 0 0 1 1h22a1 1 0 0 0 1-1v-26a1 1 0 0 0 -1-1zm-5 26h-12v-5a3.009 3.009 0 0 1 3-3h6a3.009 3.009 0 0 1 3 3zm-6.54-15a8.98 8.98 0 0 0 3.34-.64l1.97-.79a5.155 5.155 0 0 1 .23 1.43 5 5 0 0 1 -10 0zm-4.04-2a4.969 4.969 0 0 1 8.39-1.2l-1.75.7a6.915 6.915 0 0 1 -2.6.5zm14.58 17h-2v-5a5 5 0 0 0 -3.42-4.72 7 7 0 1 0 -9.16 0 5 5 0 0 0 -3.42 4.72v5h-2v-24h20z"/><path d="m32 24h8v2h-8z"/><path d="m42 24h16v2h-16z"/><path d="m32 30h8v2h-8z"/><path d="m42 30h16v2h-16z"/><path d="m32 36h26v2h-26z"/><path d="m32 42h26v2h-26z"/><path d="m32 48h26v2h-26z"/></g></svg>