<svg height="512" viewBox="0 0 64 64" width="512" xmlns="http://www.w3.org/2000/svg"><g id="compass-guide-path-route-course"><circle cx="32" cy="32" fill="#a78966" r="29"/><path d="m61 32a29 29 0 0 1 -29 29c-.84 0-1.68-.04-2.5-.12a28.987 28.987 0 0 0 0-57.76c.82-.08 1.66-.12 2.5-.12a29 29 0 0 1 29 29z" fill="#806749"/><path d="m57 32a24.989 24.989 0 1 1 -25-25 24.9 24.9 0 0 1 25 25z" fill="#fee9ab"/><path d="m57 32a25.026 25.026 0 0 1 -25 25c-.67 0-1.34-.03-2-.09a24.989 24.989 0 0 0 0-49.82c.66-.06 1.33-.09 2-.09a25.022 25.022 0 0 1 25 25z" fill="#ffd422"/><path d="m47 17-5 8-7.85 4.91-.06-.06 4.91-7.85z" fill="#ff3051"/><path d="m46.84 17.1-12.75 12.75 4.91-7.85z" fill="#cd2a00"/><path d="m34.15 29.91a3 3 0 0 1 -4.24 4.24l-.06-.06a3 3 0 0 1 4.24-4.24z" fill="#a78966"/><path d="m35 32a3 3 0 0 1 -4.5 2.6 3 3 0 0 0 .65-4.69l-.06-.06a3.284 3.284 0 0 0 -.59-.45 3 3 0 0 1 3.59.45l.06.06a3 3 0 0 1 .85 2.09z" fill="#806749"/><path d="m29.85 34.09.06.06-4.91 7.85-6 3 3-6z" fill="#ff3051"/><g fill="#cd2a00"><path d="m29.88 34.12-10.88 10.88 3-6 7.85-4.91z"/><path d="m46.97 16.97-.13.13-12.75 12.75"/><path d="m30 34-.12.12-10.88 10.88"/></g><path d="m32 6a26 26 0 1 0 26 26 26.029 26.029 0 0 0 -26-26zm23.975 25h-2.975v2h2.975a23.91 23.91 0 0 1 -6.322 15.239l-2.1-2.1-1.414 1.414 2.1 2.1a23.91 23.91 0 0 1 -15.239 6.322v-2.975h-2v2.975a23.91 23.91 0 0 1 -15.239-6.322l2.1-2.1-1.414-1.414-2.1 2.1a23.91 23.91 0 0 1 -6.322-15.239h2.975v-2h-2.975a23.91 23.91 0 0 1 6.322-15.239l2.1 2.1 1.414-1.414-2.1-2.1a23.91 23.91 0 0 1 15.239-6.322v2.975h2v-2.975a24.027 24.027 0 0 1 22.975 22.975z"/><path d="m31 17.3 2.168 3.252a1 1 0 0 0 1.832-.552v-7h-2v3.7l-2.168-3.252a1 1 0 0 0 -1.832.552v7h2z"/><path d="m32 43a1 1 0 0 1 1 1h2a3 3 0 1 0 -3 3 1 1 0 1 1 -1 1h-2a3 3 0 1 0 3-3 1 1 0 0 1 0-2z"/><path d="m32 28.25a3.755 3.755 0 0 0 -3.75 3.75 3.7 3.7 0 0 0 .4 1.658l-7.18 4.494a1 1 0 0 0 -.365.4l-3 6a1 1 0 0 0 1.342 1.348l6-3a1.007 1.007 0 0 0 .4-.365l4.494-7.184a3.7 3.7 0 0 0 1.658.4 3.755 3.755 0 0 0 3.751-3.751 3.7 3.7 0 0 0 -.4-1.658l7.184-4.494a1 1 0 0 0 .318-.318l5-8a1 1 0 0 0 -1.378-1.378l-8 5a1 1 0 0 0 -.318.318l-4.494 7.184a3.7 3.7 0 0 0 -1.662-.404zm-7.7 12.981-3.066 1.533 1.535-3.064 4.092-2.559zm7.7-6.981a2.25 2.25 0 1 1 2.25-2.25 2.253 2.253 0 0 1 -2.25 2.25zm7.726-11.524 4.129-2.581-2.581 4.129-4.135 2.587z"/><path d="m32 2a30 30 0 1 0 30 30 30.034 30.034 0 0 0 -30-30zm0 58a28 28 0 1 1 28-28 28.032 28.032 0 0 1 -28 28z"/></g></svg>