<svg height="512" viewBox="0 0 64 64" width="512" xmlns="http://www.w3.org/2000/svg"><g id="credit-card-business-money-payment"><path d="m61 24v26a2.006 2.006 0 0 1 -2 2h-54a2.006 2.006 0 0 1 -2-2v-26z" fill="#c0ab91"/><path d="m3 20h58v4h-58z" fill="#ffb655"/><path d="m61 14v6h-58v-6a2.006 2.006 0 0 1 2-2h54a2.006 2.006 0 0 1 2 2z" fill="#fee9ab"/><path d="m61 24v26a2.006 2.006 0 0 1 -2 2h-5a2.006 2.006 0 0 0 2-2v-26z" fill="#a78966"/><path d="m56 20h5v4h-5z" fill="#ff9811"/><path d="m61 14v6h-5v-6a2.006 2.006 0 0 0 -2-2h5a2.006 2.006 0 0 1 2 2z" fill="#ffd422"/><path d="m7 28h6v4h-6z" fill="#46f8ff"/><path d="m10 28h3v4h-3z" fill="#00d7df"/><path d="m59 11h-54a3.009 3.009 0 0 0 -3 3v36a3.009 3.009 0 0 0 3 3h54a3.009 3.009 0 0 0 3-3v-36a3.009 3.009 0 0 0 -3-3zm1 39a1 1 0 0 1 -1 1h-54a1 1 0 0 1 -1-1v-25h56zm0-27h-56v-2h56zm0-4h-56v-5a1 1 0 0 1 1-1h54a1 1 0 0 1 1 1z"/><path d="m7 33h6a1 1 0 0 0 1-1v-4a1 1 0 0 0 -1-1h-6a1 1 0 0 0 -1 1v4a1 1 0 0 0 1 1zm1-4h4v2h-4z"/><path d="m6 35h44v2h-44z"/><path d="m6 41h10v2h-10z"/><path d="m18 41h10v2h-10z"/><path d="m6 47h32v2h-32z"/></g></svg>