<svg height="512" viewBox="0 0 64 64" width="512" xmlns="http://www.w3.org/2000/svg"><g id="dish-knife-fork-food-restaurant"><circle cx="32" cy="32" fill="#a78966" r="29"/><path d="m61 32a29 29 0 0 1 -29 29c-.84 0-1.68-.04-2.5-.12a28.987 28.987 0 0 0 0-57.76c.82-.08 1.66-.12 2.5-.12a29 29 0 0 1 29 29z" fill="#806749"/><circle cx="32" cy="32" fill="#fee9ab" r="25"/><path d="m57 32a25 25 0 0 1 -25 25c-.67 0-1.34-.03-2-.09a24.989 24.989 0 0 0 0-49.82c.66-.06 1.33-.09 2-.09a25 25 0 0 1 25 25z" fill="#ffd422"/><path d="m43 15v46h-4v-20h-4v-18a8 8 0 0 1 8-8z" fill="#c6c5ca"/><path d="m43 15v46h-2v-45.75a8.239 8.239 0 0 1 2-.25z" fill="#898890"/><path d="m39 56v4.15a28.859 28.859 0 0 1 -7 .85 28.435 28.435 0 0 1 -5-.44v-4.06a25.1 25.1 0 0 0 12-.5z" fill="#a78966"/><path d="m31 15v18h-4v28h-4v-28h-4v-18l4 14 2-14 2 14z" fill="#c6c5ca"/><path d="m25 33h2v28h-2z" fill="#898890"/><path d="m31 15v18h-2v-11z" fill="#898890"/><path d="m32 2a29.992 29.992 0 0 0 -10 58.27v.73a1 1 0 0 0 1 1h4a.952.952 0 0 0 .72-.32 29.051 29.051 0 0 0 4.28.32 30.011 30.011 0 0 0 6.08-.63.981.981 0 0 0 .92.63h4a1 1 0 0 0 1-1v-1.53a29.985 29.985 0 0 0 -12-57.47zm-5 30a1 1 0 0 0 -1 1v27h-2v-27a1 1 0 0 0 -1-1h-3v-9.86l2.04 7.13a1 1 0 0 0 1.95-.13l1.01-7.07 1.01 7.07a1 1 0 0 0 1.95.13l2.04-7.13v9.86zm11 27.35a28 28 0 0 1 -10 .35v-2.01a25.385 25.385 0 0 0 4 .31 26.253 26.253 0 0 0 6-.71zm4 .65h-2v-19a1 1 0 0 0 -1-1h-3v-17a7.013 7.013 0 0 1 6-6.93zm1-46a9.014 9.014 0 0 0 -9 9v18a1 1 0 0 0 1 1h3v13.23a24.278 24.278 0 0 1 -10 .43v-21.66h3a1 1 0 0 0 1-1v-18a1 1 0 0 0 -1.96-.27l-2.71 9.49-1.34-9.36a1 1 0 0 0 -1.98 0l-1.34 9.36-2.71-9.49a1 1 0 0 0 -1.96.27v18a1 1 0 0 0 1 1h3v19.8a23.993 23.993 0 1 1 34-21.8 23.823 23.823 0 0 1 -12 20.77v-37.77a1 1 0 0 0 -1-1zm1 43.28v-2.24a25.991 25.991 0 1 0 -38-23.04 26.188 26.188 0 0 0 16 23.98v2.15a27.994 27.994 0 1 1 22-.85z"/></g></svg>