<svg height="512" viewBox="0 0 64 64" width="512" xmlns="http://www.w3.org/2000/svg"><g id="flight-ticket-excite-rip-detail"><path d="m13 15h48v34h-48z" fill="#fee9ab"/><path d="m13 15v34h-10v-11a6 6 0 0 0 0-12v-11z" fill="#ffb655"/><path d="m9 15h4v34h-4z" fill="#ff9811"/><path d="m53 15h8v34h-8z" fill="#ffd422"/><path d="m61 14h-58a1 1 0 0 0 -1 1v11a1 1 0 0 0 1 1 5 5 0 0 1 0 10 1 1 0 0 0 -1 1v11a1 1 0 0 0 1 1h58a1 1 0 0 0 1-1v-34a1 1 0 0 0 -1-1zm-1 34h-56v-9.071a7 7 0 0 0 0-13.858v-9.071h56z"/><path d="m12 18h2v4h-2z"/><path d="m12 24h2v4h-2z"/><path d="m12 30h2v4h-2z"/><path d="m12 36h2v4h-2z"/><path d="m12 42h2v4h-2z"/><path d="m18 19h38v2h-38z"/><path d="m18 25h38v2h-38z"/><path d="m18 31h38v2h-38z"/><path d="m18 37h38v2h-38z"/><path d="m18 43h38v2h-38z"/></g></svg>