<?xml version="1.0" encoding="UTF-8"?>
<svg xmlns="http://www.w3.org/2000/svg" viewBox="0 0 64 64" width="512" height="512"><g id="global-world-around-arrow-travelling"><circle cx="32" cy="32" r="23" style="fill:#7ed63e"/><path d="M55,32A23,23,0,0,1,32,55c-.68,0-1.34-.03-2-.09A23,23,0,0,0,30,9.09c.66-.06,1.32-.09,2-.09A23,23,0,0,1,55,32Z" style="fill:#4e901e"/><path d="M49,16.52V21a2.006,2.006,0,0,1-2,2H44a2.006,2.006,0,0,0-2,2v9a2.006,2.006,0,0,1-2,2H37a2.006,2.006,0,0,0-2,2v5a2.006,2.006,0,0,0,2,2h2a2.006,2.006,0,0,1,2,2v6.17a23,23,0,0,1-26-5.69V43a2.006,2.006,0,0,1,2-2h3a2.006,2.006,0,0,0,2-2V30a2.006,2.006,0,0,1,2-2h3a2.006,2.006,0,0,0,2-2V21a2.006,2.006,0,0,0-2-2H25a2.006,2.006,0,0,1-2-2V10.83a23,23,0,0,1,26,5.69Z" style="fill:#006df0"/><path d="M49,16.52V21a2.006,2.006,0,0,1-2,2H44a2.006,2.006,0,0,0-2,2v9a2.006,2.006,0,0,1-2,2H37a2.006,2.006,0,0,0-2,2v5a2.006,2.006,0,0,0,2,2h2a2.006,2.006,0,0,1,2,2v6.17A22.865,22.865,0,0,1,32,55q-1.02,0-2.01-.09A22.764,22.764,0,0,0,37,53.17V47a2.006,2.006,0,0,0-2-2H33a2.006,2.006,0,0,1-2-2V38a2.006,2.006,0,0,1,2-2h3a2.006,2.006,0,0,0,2-2V25a2.006,2.006,0,0,1,2-2h3a2.006,2.006,0,0,0,2-2V16.52A22.871,22.871,0,0,0,30.01,9.09C30.66,9.03,31.33,9,32,9A22.907,22.907,0,0,1,49,16.52Z" style="fill:#004fac"/><path d="M32,8A24,24,0,1,0,56,32,24.032,24.032,0,0,0,32,8ZM14,43v1.63a21.973,21.973,0,0,1,8-32.22V17a3.009,3.009,0,0,0,3,3h2a1,1,0,0,1,1,1v5a1,1,0,0,1-1,1H24a3.009,3.009,0,0,0-3,3v9a1,1,0,0,1-1,1H17A3.009,3.009,0,0,0,14,43Zm26,9.49a21.954,21.954,0,0,1-24-5.41V43a1,1,0,0,1,1-1h3a3.009,3.009,0,0,0,3-3V30a1,1,0,0,1,1-1h3a3.009,3.009,0,0,0,3-3V21a3.009,3.009,0,0,0-3-3H25a1,1,0,0,1-1-1V11.51a21.954,21.954,0,0,1,24,5.41V21a1,1,0,0,1-1,1H44a3.009,3.009,0,0,0-3,3v9a1,1,0,0,1-1,1H37a3.009,3.009,0,0,0-3,3v5a3.009,3.009,0,0,0,3,3h2a1,1,0,0,1,1,1Zm2-.9V47a3.009,3.009,0,0,0-3-3H37a1,1,0,0,1-1-1V38a1,1,0,0,1,1-1h3a3.009,3.009,0,0,0,3-3V25a1,1,0,0,1,1-1h3a3.009,3.009,0,0,0,3-3V19.37a21.973,21.973,0,0,1-8,32.22Z"/><path d="M11,13h4V11H13.507a27.944,27.944,0,0,1,38.769,1.709l1.448-1.379A29.94,29.94,0,0,0,12,9.666V8H10v4A1,1,0,0,0,11,13Z"/><path d="M53,51H49v2h1.493a27.944,27.944,0,0,1-38.769-1.709L10.276,52.67A29.94,29.94,0,0,0,52,54.334V56h2V52A1,1,0,0,0,53,51Z"/></g></svg>
