<svg height="512" viewBox="0 0 64 64" width="512" xmlns="http://www.w3.org/2000/svg"><g id="GPS-pin-local-road-navigation"><path d="m62 18v9l-9.47 4.73a11.875 11.875 0 0 1 -5.36 1.27h-9.17a6 6 0 0 0 -6 6v10a12 12 0 0 1 -12 12h-11a48.139 48.139 0 0 0 4.64-8h4.36a6 6 0 0 0 6-6v-10a12 12 0 0 1 12-12h9.17a11.875 11.875 0 0 0 5.36-1.27l.06-.03c1.35 1.98 2.41 3.3 2.41 3.3a62.99 62.99 0 0 0 4.64-6.82z" fill="#57565c"/><path d="m61 11c0 2.68-1.59 6.15-3.36 9.18a62.99 62.99 0 0 1 -4.64 6.82s-1.06-1.32-2.41-3.3c-2.35-3.45-5.59-8.88-5.59-12.7a8 8 0 0 1 16 0z" fill="#ff3051"/><path d="m61 11c0 2.68-1.59 6.15-3.36 9.18a62.99 62.99 0 0 1 -4.64 6.82s-.85-1.06-2-2.71c.79-1.15 1.74-2.57 2.64-4.11 1.77-3.03 3.36-6.5 3.36-9.18a8.006 8.006 0 0 0 -6-7.75 8.239 8.239 0 0 1 2-.25 8 8 0 0 1 8 8z" fill="#cd2a00"/><circle cx="53" cy="11" fill="#fee9ab" r="4"/><path d="m57 11a4 4 0 0 1 -4 4 3.756 3.756 0 0 1 -1.5-.3 3.988 3.988 0 0 0 0-7.4 3.756 3.756 0 0 1 1.5-.3 4 4 0 0 1 4 4z" fill="#ffd422"/><path d="m15 48a13.646 13.646 0 0 1 -1.36 5 48.139 48.139 0 0 1 -4.64 8c-2.48-3.47-6-9.51-6-13a6 6 0 0 1 12 0z" fill="#fee9ab"/><path d="m15 48a13.646 13.646 0 0 1 -1.36 5 48.139 48.139 0 0 1 -4.64 8c-.63-.88-1.32-1.92-2-3.04a42.944 42.944 0 0 0 2.64-4.96 13.646 13.646 0 0 0 1.36-5 5.981 5.981 0 0 0 -4-5.65 5.8 5.8 0 0 1 2-.35 6 6 0 0 1 6 6z" fill="#ffd422"/><circle cx="9" cy="48" fill="#ff3051" r="2"/><path d="m11 48a2 2 0 0 1 -3 1.73 2 2 0 0 0 0-3.46 2 2 0 0 1 3 1.73z" fill="#cd2a00"/><path d="m58 11a5 5 0 1 0 -5 5 5.006 5.006 0 0 0 5-5zm-8 0a3 3 0 1 1 3 3 3 3 0 0 1 -3-3z"/><path d="m12 48a3 3 0 1 0 -3 3 3 3 0 0 0 3-3zm-4 0a1 1 0 1 1 1 1 1 1 0 0 1 -1-1z"/><path d="m52.09 30.84a11.052 11.052 0 0 1 -4.92 1.16h-9.17a7.008 7.008 0 0 0 -7 7v10a11.007 11.007 0 0 1 -11 11h-9.11a50.542 50.542 0 0 0 3.39-6h3.72a7.008 7.008 0 0 0 7-7v-10a11.007 11.007 0 0 1 11-11h9.17a12.859 12.859 0 0 0 5.06-1.06c1.08 1.53 1.89 2.56 1.99 2.68a.991.991 0 0 0 1.56 0 61.462 61.462 0 0 0 4.57-6.68l4.1-2.05-.9-1.78-1.55.77a16.935 16.935 0 0 0 2-6.88 9 9 0 0 0 -18 0c0 3.72 2.77 8.72 5.1 12.26a10.966 10.966 0 0 1 -3.93.74h-9.17a13.012 13.012 0 0 0 -13 13v10a5 5 0 0 1 -5 5h-2.87a12.2 12.2 0 0 0 .87-4 7 7 0 0 0 -14 0c0 4.77 5.55 12.69 6.19 13.58a1 1 0 0 0 .81.42h11a13.012 13.012 0 0 0 13-13v-10a5 5 0 0 1 5-5h9.17a13.025 13.025 0 0 0 5.81-1.37l9.47-4.74-.9-1.78zm-6.09-19.84a7 7 0 0 1 14 0c0 4.51-5.03 11.7-7 14.35-1.97-2.65-7-9.84-7-14.35zm-42 37a5 5 0 0 1 10 0c0 2.65-2.46 7.44-5 11.24-2.54-3.8-5-8.59-5-11.24z"/><path d="m37 30v-2a10.011 10.011 0 0 0 -10 10h2a8.009 8.009 0 0 1 8-8z"/><path d="m19 56v2a10.011 10.011 0 0 0 10-10h-2a8.009 8.009 0 0 1 -8 8z"/><path d="m15 56h2v2h-2z"/><path d="m27 40h2v2h-2z"/><path d="m27 44h2v2h-2z"/><path d="m39 28h2v2h-2z"/><path d="m43 28h2v2h-2z"/><path d="m47 28h2v2h-2z"/></g></svg>