<svg height="512" viewBox="0 0 64 64" width="512" xmlns="http://www.w3.org/2000/svg"><g id="grill-meat-barbecue-dinner-party"><path d="m48 21a2.006 2.006 0 0 1 2 2 2.015 2.015 0 0 1 -2 2h-32a2.006 2.006 0 0 1 -2-2 2.015 2.015 0 0 1 2-2z" fill="#ffb655"/><path d="m48 25v2a14 14 0 0 1 -14 14h-4a14 14 0 0 1 -14-14v-2z" fill="#fee9ab"/><path d="m50 23a2.015 2.015 0 0 1 -2 2h-4a2.015 2.015 0 0 0 2-2 2.006 2.006 0 0 0 -2-2h4a2.006 2.006 0 0 1 2 2z" fill="#ff9811"/><path d="m48 25v2a14 14 0 0 1 -14 14h-4a14 14 0 0 0 14-14v-2z" fill="#ffd422"/><path d="m37.56 40.54 7.44 20.46h-4l-7.27-20h.27a13.9 13.9 0 0 0 3.56-.46z" fill="#a78966"/><path d="m45 61h-2l-7.31-20.11a12.854 12.854 0 0 0 1.87-.35z" fill="#806749"/><path d="m36.27 48 1.46 4h-11.46l1.46-4z" fill="#806749"/><path d="m37 50h-10l.73-2h8.54z" fill="#5f4d37"/><path d="m30.27 41-2.54 7-1.46 4-3.27 9h-4l7.44-20.46a13.9 13.9 0 0 0 3.56.46z" fill="#a78966"/><path d="m28.31 40.89-7.31 20.11h-2l7.44-20.46a12.854 12.854 0 0 0 1.87.35z" fill="#806749"/><path d="m48 20h-32a3 3 0 0 0 -1 5.82v1.18a15.022 15.022 0 0 0 10.14 14.18l-7.08 19.48a.985.985 0 0 0 .12.91 1 1 0 0 0 .82.43h4a.992.992 0 0 0 .94-.66l3.03-8.34h10.06l3.03 8.34a.992.992 0 0 0 .94.66h4a1 1 0 0 0 .82-.43.985.985 0 0 0 .12-.91l-7.08-19.48a15.022 15.022 0 0 0 10.14-14.18v-1.18a3 3 0 0 0 -1-5.82zm-25.7 40h-1.87l6.65-18.29a13.125 13.125 0 0 0 1.78.23zm5.4-9 .73-2h7.14l.73 2zm1.45-4 1.82-5h2.06l1.82 5zm14.42 13h-1.87l-6.56-18.06a13.125 13.125 0 0 0 1.78-.23zm3.43-33a13.012 13.012 0 0 1 -13 13h-4a13.012 13.012 0 0 1 -13-13v-1h30zm1-3h-32a1 1 0 0 1 0-2h32a1 1 0 0 1 0 2z"/><path d="m30.43 12.845a3.824 3.824 0 0 0 -2.11 3.155h2c0-.586.362-.9 1.25-1.513a3.824 3.824 0 0 0 2.11-3.155 3.824 3.824 0 0 0 -2.11-3.155c-.888-.617-1.25-.927-1.25-1.513s.362-.893 1.25-1.511a3.824 3.824 0 0 0 2.11-3.153h-2c0 .585-.362.894-1.25 1.511a3.824 3.824 0 0 0 -2.11 3.153 3.824 3.824 0 0 0 2.11 3.155c.888.618 1.25.927 1.25 1.513s-.362.896-1.25 1.513z"/><path d="m21.43 12.845a3.824 3.824 0 0 0 -2.11 3.155h2c0-.586.362-.9 1.25-1.513a3.824 3.824 0 0 0 2.11-3.155 3.824 3.824 0 0 0 -2.11-3.155c-.888-.617-1.25-.927-1.25-1.513s.362-.893 1.25-1.511a3.824 3.824 0 0 0 2.11-3.153h-2c0 .585-.362.894-1.25 1.511a3.824 3.824 0 0 0 -2.11 3.153 3.824 3.824 0 0 0 2.11 3.155c.888.618 1.25.927 1.25 1.513s-.362.896-1.25 1.513z"/><path d="m39.43 12.845a3.824 3.824 0 0 0 -2.11 3.155h2c0-.586.362-.9 1.25-1.513a3.824 3.824 0 0 0 2.11-3.155 3.824 3.824 0 0 0 -2.11-3.155c-.888-.617-1.25-.927-1.25-1.513s.362-.893 1.25-1.511a3.824 3.824 0 0 0 2.11-3.153h-2c0 .585-.362.894-1.25 1.511a3.824 3.824 0 0 0 -2.11 3.153 3.824 3.824 0 0 0 2.11 3.155c.888.618 1.25.927 1.25 1.513s-.362.896-1.25 1.513z"/></g></svg>