<svg height="512" viewBox="0 0 64 64" width="512" xmlns="http://www.w3.org/2000/svg"><g id="woman-travel-hat-trip-backpack"><path d="m54 34h-10a3 3 0 0 0 -3 3v5h16v-5a3 3 0 0 0 -3-3z" fill="#ffb655"/><path d="m57 37v5h-4v-5a3 3 0 0 0 -3-3h4a3 3 0 0 1 3 3z" fill="#ff9811"/><path d="m41 42h16v16h-16z" fill="#a78966"/><path d="m53 42h4v16h-4z" fill="#806749"/><path d="m45 48v3a3 3 0 0 0 3 3h2a3 3 0 0 0 3-3v-3z" fill="#898890"/><path d="m53 48v3a3 3 0 0 1 -3 3h-2a2.772 2.772 0 0 1 -1-.18 2.968 2.968 0 0 0 2-2.82v-3z" fill="#57565c"/><path d="m31.37 11.88c2.25 2.13 3.36 4.19 2.66 5.41-.63 1.08-2.54 1.27-5.03.67a24.959 24.959 0 0 1 -6.5-2.7c-.22-.12-.43-.25-.64-.39a21.6 21.6 0 0 1 -5.85-4.93c-1.11-1.46-1.54-2.77-1.04-3.65.71-1.22 3.06-1.29 6.03-.4a3.284 3.284 0 0 0 -.2.31l-1 1.73 1.55 1.74a12 12 0 0 0 6.57 3.79l2.28.47 1-1.73a3.239 3.239 0 0 0 .17-.32z" fill="#933ec5"/><path d="m34 35v18h-6v-22h2a4 4 0 0 1 4 4z" fill="#ffc477"/><path d="m34 35v18h-3v-18a3.992 3.992 0 0 0 -3-3.87v-.13h2a4 4 0 0 1 4 4z" fill="#ffa733"/><path d="m32 9.21a5.663 5.663 0 0 1 -.39 2.1l-2.19-.45a12 12 0 0 1 -6.57-3.79l-1.49-1.67a6 6 0 0 1 10.64 3.81z" fill="#933ec5"/><path d="m31.37 11.88a3.239 3.239 0 0 1 -.17.32l-1 1.73-2.28-.47a12 12 0 0 1 -6.57-3.79l-1.55-1.74 1-1.73a3.284 3.284 0 0 1 .2-.31 2.8 2.8 0 0 1 .36-.49l1.49 1.67a12 12 0 0 0 6.57 3.79l2.19.45a4.05 4.05 0 0 1 -.24.57z" fill="#ffd422"/><path d="m29 17.96v.04a8.981 8.981 0 0 1 -6 8.48 8.914 8.914 0 0 1 -6 0 8.981 8.981 0 0 1 -6-8.48 8.262 8.262 0 0 1 .06-1h3.53a7.928 7.928 0 0 0 2.73-.48l4.54-1.65c.21.14.42.27.64.39a24.959 24.959 0 0 0 6.5 2.7z" fill="#ffc477"/><path d="m12 31h16v30h-16z" fill="#933ec5"/><path d="m24 31h4v30h-4z" fill="#6d2c93"/><path d="m23 26.48v4.52h-6v-4.52a8.914 8.914 0 0 0 6 0z" fill="#ffb655"/><path d="m14.35 11a8.995 8.995 0 0 1 1.66-1.06 21.6 21.6 0 0 0 5.85 4.93l-4.54 1.65a7.928 7.928 0 0 1 -2.73.48h-3.53a8.887 8.887 0 0 1 3.29-6z" fill="#ffd422"/><path d="m17 26.48v.52h-14l2-10v-2a4 4 0 0 1 4-4h5.35a8.887 8.887 0 0 0 -3.29 6 8.262 8.262 0 0 0 -.06 1 8.981 8.981 0 0 0 6 8.48z" fill="#ffd422"/><path d="m12 31v22h-6v-18a4 4 0 0 1 4-4z" fill="#ffc477"/><path d="m30 30h-6v-2.84a10.031 10.031 0 0 0 5.91-7.9 10.171 10.171 0 0 0 1.59.14c1.6 0 2.86-.46 3.49-1.55.93-1.61.06-3.83-2.4-6.31a7 7 0 0 0 -11.92-6.88c-3.37-.89-5.73-.53-6.66 1.08-.45.78-.66 2.05.47 3.93l-.45.33h-5.03a5 5 0 0 0 -5 5v1.9l-1.98 9.9a.99.99 0 0 0 .21.83.971.971 0 0 0 .77.37h13v2h-6a5 5 0 0 0 -5 5v18a1 1 0 0 0 1 1h5v7a1 1 0 0 0 1 1h16a1 1 0 0 0 1-1v-7h5a1 1 0 0 0 1-1v-18a5 5 0 0 0 -5-5zm-19 22h-4v-17a3.009 3.009 0 0 1 3-3h1zm17.5-47.13a4.99 4.99 0 0 1 2.39 5.27l-1.27-.26a10.985 10.985 0 0 1 -6.02-3.48l-.87-.96a4.984 4.984 0 0 1 5.77-.57zm-7.02 2.16.62.7a13.06 13.06 0 0 0 7.12 4.11l.92.19-.45.77-1.57-.32a11.047 11.047 0 0 1 -6.03-3.48l-1.06-1.2zm-5.54-.18c.21-.37 1.33-.67 3.46-.22l-.46.8a.981.981 0 0 0 .12 1.16l1.54 1.74a13.06 13.06 0 0 0 7.12 4.11l2.28.47a1.231 1.231 0 0 0 .2.02 1 1 0 0 0 .86-.5l.46-.8c1.46 1.62 1.76 2.74 1.54 3.11-.49.85-4.46.75-10-2.44a22.455 22.455 0 0 1 -5.86-4.66c-1.17-1.39-1.48-2.42-1.26-2.79zm-.25 4.43a21.952 21.952 0 0 0 3.83 3.38l-2.55.92a6.776 6.776 0 0 1 -2.38.42h-2.33a7.883 7.883 0 0 1 3.43-4.72zm-11.47 14.72 1.76-8.8a1.355 1.355 0 0 0 .02-.2v-2a3.009 3.009 0 0 1 3-3h3.01a9.957 9.957 0 0 0 2.02 14zm7.78-8h2.59a8.819 8.819 0 0 0 3.07-.54l3.96-1.44c.11.07.21.14.32.2a27.454 27.454 0 0 0 6.02 2.61 8 8 0 0 1 -15.96-.83zm10 9.8v2.2h-4v-2.2a10.1 10.1 0 0 0 4 0zm5 32.2h-14v-28h14zm6-8h-4v-20h1a3.009 3.009 0 0 1 3 3z"/><path d="m20 22c-1.221 0-2-.592-2-1h-2c0 1.682 1.757 3 4 3s4-1.318 4-3h-2c0 .408-.779 1-2 1z"/><path d="m53 47h-8a1 1 0 0 0 -1 1v3a4 4 0 0 0 4 4h2a4 4 0 0 0 4-4v-3a1 1 0 0 0 -1-1zm-1 4a2 2 0 0 1 -2 2h-2a2 2 0 0 1 -2-2v-2h6z"/><path d="m58 29a3.995 3.995 0 0 0 -4 4h-1a4 4 0 0 0 -8 0h-1a4 4 0 0 0 -8 0v24a1 1 0 0 0 1 1h3a1 1 0 0 0 1 1h2v3h2v-3h8v3h2v-3h2a1 1 0 0 0 1-1h3a1 1 0 0 0 1-1v-24a4 4 0 0 0 -4-4zm-9 2a2.006 2.006 0 0 1 2 2h-4a2.006 2.006 0 0 1 2-2zm-9 6v19h-2v-23a2.006 2.006 0 0 1 2-2 2.015 2.015 0 0 1 2 2v.56a3.98 3.98 0 0 0 -2 3.44zm16 20h-14v-14h2v2h2v-2h6v2h2v-2h2zm0-16h-2v-2h-2v2h-6v-2h-2v2h-2v-4a2.006 2.006 0 0 1 2-2h10a2.006 2.006 0 0 1 2 2zm4 15h-2v-19a3.98 3.98 0 0 0 -2-3.44v-.56a2.015 2.015 0 0 1 2-2 2.006 2.006 0 0 1 2 2z"/></g></svg>