<svg height="512" viewBox="0 0 64 64" width="512" xmlns="http://www.w3.org/2000/svg"><g id="island-coconut-sun-tree-ocean"><path d="m62 55.2v3c-6 0-6-2.4-12-2.4s-6.01 2.4-12.01 2.4-6-2.4-11.99-2.4-6 2.4-12 2.4-6-2.4-12-2.4v-3a13.429 13.429 0 0 1 5.03.83 15.9 15.9 0 0 0 6.97 1.57c6 0 6-2.4 12-2.4s5.99 2.4 11.99 2.4 6-2.4 12.01-2.4c3.66 0 5.08.89 7 1.59a13.775 13.775 0 0 0 5 .81z" fill="#57a4ff"/><path d="m15.56 47.97a53.045 53.045 0 0 1 9.44-1.65c2.22-.21 4.57-.32 7-.32 13.81 0 25 3.58 25 8v.39c-1.92-.7-3.34-1.59-7-1.59-6.01 0-6.01 2.4-12.01 2.4s-6-2.4-11.99-2.4-6 2.4-12 2.4a15.9 15.9 0 0 1 -6.97-1.57c.32-2.26 3.55-4.27 8.53-5.66z" fill="#a78966"/><path d="m57 54v.39a16.249 16.249 0 0 0 -6.04-1.57c-3.83-2.83-12.67-4.82-22.96-4.82-2.43 0-4.78.11-7 .32a53.045 53.045 0 0 0 -9.44 1.65c-.84.23-1.64.49-2.37.76a20.544 20.544 0 0 1 6.37-2.76 53.045 53.045 0 0 1 9.44-1.65c2.22-.21 4.57-.32 7-.32 13.81 0 25 3.58 25 8z" fill="#806749"/><circle cx="49" cy="15" fill="#ff9811" r="6"/><path d="m55 15a6 6 0 0 1 -6 6 5.8 5.8 0 0 1 -2-.35 5.99 5.99 0 0 0 0-11.3 5.8 5.8 0 0 1 2-.35 6 6 0 0 1 6 6z" fill="#cc7400"/><path d="m24.06 17.04c3.35 1.93 5.17 5.05 4.06 6.96l-4.66-3.66a7.813 7.813 0 0 0 -1.96-1.13l-4.31-1.73-1.14-.46-.05-.02a3.025 3.025 0 0 1 2.36-1.36 9.345 9.345 0 0 1 5.7 1.4z" fill="#5eac24"/><path d="m25 37.55v8.77a53.045 53.045 0 0 0 -9.44 1.65l.44-3.97 8.77-8.77a12.008 12.008 0 0 1 .23 2.32z" fill="#ffc477"/><path d="m24.77 35.23-8.77 8.77.85-7.67a10.593 10.593 0 0 0 .07-1.25l5.62-5.62 1.43 3.21a12.072 12.072 0 0 1 .8 2.56z" fill="#a78966"/><path d="m20.08 23.92 2.46 5.54-5.62 5.62a11.1 11.1 0 0 0 -.07-1.41l-.65-5.87z" fill="#ffc477"/><path d="m25 37.55v8.77c-1.03.09-2.03.21-3 .35v-8.67l2.77-2.77a12.008 12.008 0 0 1 .23 2.32z" fill="#ffa733"/><path d="m22.54 29.46-2 2-2.46-5.54 2-2z" fill="#ffa733"/><path d="m17.3 17.67 2.78 6.25-3.88 3.88-1.06-9.54a1.146 1.146 0 0 1 .91-1.24l1.14.46a.724.724 0 0 1 .11.19z" fill="#a78966"/><g fill="#5eac24"><path d="m16 3c2.21 0 4 3.13 4 7a9.334 9.334 0 0 1 -1.64 5.64 3.025 3.025 0 0 0 -2.36 1.36l.26-1.83.58-4.04a7.78 7.78 0 0 0 0-2.26z"/><path d="m16.26 15.17-.26 1.83a2.619 2.619 0 0 0 -1.46-1.15l-3.2-2.51a7.992 7.992 0 0 0 -1.96-1.13l-5.5-2.21c1.1-1.91 4.71-1.9 8.06.04 2.42 1.39 4.03 3.4 4.32 5.13z"/><path d="m16 17-5.5 2.21a7.813 7.813 0 0 0 -1.96 1.13l-4.66 3.66c-1.11-1.91.71-5.03 4.06-6.96 2.41-1.4 4.96-1.79 6.6-1.19a2.619 2.619 0 0 1 1.46 1.15z"/></g><path d="m24.77 35.23-2 2a12.072 12.072 0 0 0 -.8-2.56l-1.43-3.21 2-2 1.43 3.21a12.072 12.072 0 0 1 .8 2.56z" fill="#806749"/><path d="m57.98 53.66c-.52-5.63-13.62-8.66-25.98-8.66-2 0-4.02.08-6 .23v-7.68a13.05 13.05 0 0 0 -1.12-5.29l-5.74-12.92 1.99.8a6.635 6.635 0 0 1 1.71.99l4.67 3.66a.961.961 0 0 0 .61.21 1.108 1.108 0 0 0 .19-.02.971.971 0 0 0 .68-.48 4.4 4.4 0 0 0 -.36-4.48 11.224 11.224 0 0 0 -4.07-3.85 11.537 11.537 0 0 0 -4.47-1.52 11.754 11.754 0 0 0 .91-4.65c0-4.49-2.2-8-5-8a1.037 1.037 0 0 0 -.76.34 1.006 1.006 0 0 0 -.23.8l.84 5.88a6.506 6.506 0 0 1 0 1.97l-.13.91a11.907 11.907 0 0 0 -3.28-2.73 9.76 9.76 0 0 0 -7.03-1.39 3.792 3.792 0 0 0 -2.4 1.72 1.014 1.014 0 0 0 .5 1.43l5.5 2.21a6.807 6.807 0 0 1 1.71.99l.73.57a11.783 11.783 0 0 0 -4.01 1.47 11.224 11.224 0 0 0 -4.07 3.85 4.4 4.4 0 0 0 -.36 4.48.971.971 0 0 0 .68.48 1.108 1.108 0 0 0 .19.02.961.961 0 0 0 .61-.21l4.67-3.66a6.635 6.635 0 0 1 1.71-.99l3.32-1.34 1.67 14.98a11.059 11.059 0 0 1 0 2.44l-1.22 10.95c-4.14 1.23-7.22 2.96-8.26 5.19a15.291 15.291 0 0 0 -4.38-.56v2a12.974 12.974 0 0 1 5.63 1.13 14.881 14.881 0 0 0 6.37 1.27 14.954 14.954 0 0 0 6.37-1.27 12.974 12.974 0 0 1 5.63-1.13 12.958 12.958 0 0 1 5.62 1.13 14.918 14.918 0 0 0 6.37 1.27 14.881 14.881 0 0 0 6.37-1.27 13.061 13.061 0 0 1 5.64-1.13 13.01 13.01 0 0 1 5.63 1.13 14.918 14.918 0 0 0 6.37 1.27v-2a13.127 13.127 0 0 1 -4.02-.54zm-47.85-35.38a9.137 9.137 0 0 0 -2.21 1.27l-3.29 2.58a4.6 4.6 0 0 1 .47-1.1 9.307 9.307 0 0 1 3.34-3.13 9.142 9.142 0 0 1 4.37-1.32h.03a4.44 4.44 0 0 1 1.16.14zm4.91-3.31-3.08-2.42a9.532 9.532 0 0 0 -2.21-1.27l-3.88-1.56a.433.433 0 0 0 .05-.01 7.878 7.878 0 0 1 5.52 1.2 7.763 7.763 0 0 1 3.75 4.12zm8.96 22.58v7.86a58.461 58.461 0 0 0 -7.28 1.21l.24-2.16 7.03-7.04c0 .04.01.09.01.13zm-.94-4.48a11.13 11.13 0 0 1 .61 1.85l-6.36 6.36.53-4.84c.04-.31.04-.62.06-.92l4.32-4.33zm-3.3-7.41 1.59 3.58-3.59 3.58-.51-4.65zm3.8-7.76a9.307 9.307 0 0 1 3.34 3.13 4.6 4.6 0 0 1 .47 1.1l-3.29-2.58a9.137 9.137 0 0 0 -2.21-1.27l-3.87-1.56a4.133 4.133 0 0 1 1.19-.14 9.142 9.142 0 0 1 4.37 1.32zm-4.56-7.9a8.808 8.808 0 0 1 -1.21 4.71c-.16.04-.32.08-.47.12l.51-3.55a9.076 9.076 0 0 0 0-2.55l-.59-4.14a7.749 7.749 0 0 1 1.76 5.41zm-2.86 8.13.33.14 2.42 5.43-1.93 1.92-.82-7.46c-.01-.01 0-.02 0-.03zm33.86 33.67a14.97 14.97 0 0 0 -6.38 1.27 12.974 12.974 0 0 1 -5.63 1.13 12.958 12.958 0 0 1 -5.62-1.13 14.954 14.954 0 0 0 -6.37-1.27 14.97 14.97 0 0 0 -6.38 1.27 12.958 12.958 0 0 1 -5.62 1.13 12.974 12.974 0 0 1 -5.63-1.13c-.03-.01-.05-.02-.08-.03 1.68-3.04 10.96-6.04 23.71-6.04 12.38 0 21.48 2.83 23.55 5.75a14.643 14.643 0 0 0 -5.55-.95z"/><path d="m56 15a7 7 0 1 0 -7 7 7.008 7.008 0 0 0 7-7zm-7 5a5 5 0 1 1 5-5 5.006 5.006 0 0 1 -5 5z"/><path d="m48 2h2v4h-2z"/><path d="m42.5 3.474h2v4h-2z" transform="matrix(.866 -.5 .5 .866 3.092 22.485)"/><path d="m38.473 7.5h2v4h-2z" transform="matrix(.5 -.866 .866 .5 11.509 38.934)"/><path d="m36 14h4v2h-4z"/><path d="m37.474 19.5h4v2h-4z" transform="matrix(.866 -.5 .5 .866 -4.962 22.479)"/><path d="m41.5 23.526h4v2h-4z" transform="matrix(.5 -.866 .866 .5 .512 49.939)"/><path d="m48 24h2v4h-2z"/><path d="m53.5 22.526h2v4h-2z" transform="matrix(.866 -.5 .5 .866 -4.961 30.538)"/><path d="m57.526 18.5h2v4h-2z" transform="matrix(.5 -.866 .866 .5 11.508 60.934)"/><path d="m58 14h4v2h-4z"/><path d="m56.526 8.5h4v2h-4z" transform="matrix(.866 -.5 .5 .866 3.092 30.538)"/><path d="m52.5 4.473h4v2h-4z" transform="matrix(.5 -.866 .866 .5 22.514 49.938)"/><path d="m20.665 58.12a8.314 8.314 0 0 0 -4.1.979 6.363 6.363 0 0 1 -3.235.781 6.354 6.354 0 0 1 -3.23-.78 8.3 8.3 0 0 0 -4.1-.98v2a6.354 6.354 0 0 1 3.232.781 8.308 8.308 0 0 0 4.1.979 8.311 8.311 0 0 0 4.1-.979 6.366 6.366 0 0 1 3.235-.781 6.366 6.366 0 0 1 3.233.78 8.311 8.311 0 0 0 4.1.979v-2a6.366 6.366 0 0 1 -3.235-.781 8.311 8.311 0 0 0 -4.1-.978z"/><path d="m50.665 59.88a6.366 6.366 0 0 1 -3.235-.78 9.071 9.071 0 0 0 -8.2 0 6.354 6.354 0 0 1 -3.23.78v2a8.3 8.3 0 0 0 4.1-.979 7.084 7.084 0 0 1 6.467 0 9.075 9.075 0 0 0 8.2 0 6.366 6.366 0 0 1 3.233-.781v-2a8.311 8.311 0 0 0 -4.1.979 6.366 6.366 0 0 1 -3.235.781z"/></g></svg>