<svg height="512" viewBox="0 0 64 64" width="512" xmlns="http://www.w3.org/2000/svg"><g id="landmark-buiding-shop-pin-town"><path d="m50 27v28.73a86.841 86.841 0 0 0 -18-1.73 86.841 86.841 0 0 0 -18 1.73v-28.73z" fill="#c6c5ca"/><path d="m50 27v28.73c-1.25-.27-2.59-.52-4-.74v-27.99z" fill="#898890"/><path d="m61.24 11.76-2.83 1.41-1.41 2.83-1.41-2.83-2.83-1.41 2.83-1.42 1.41-2.83 1.41 2.83z" fill="#ebbf00"/><path d="m61 62h-58c0-2.54 4.3-4.81 11-6.27a86.841 86.841 0 0 1 18-1.73 86.841 86.841 0 0 1 18 1.73c6.7 1.46 11 3.73 11 6.27z" fill="#a78966"/><path d="m61 62h-5c0-2.54-4.3-4.81-11-6.27a83.336 83.336 0 0 0 -15.48-1.7c.82-.02 1.64-.03 2.48-.03a86.841 86.841 0 0 1 18 1.73c6.7 1.46 11 3.73 11 6.27z" fill="#806749"/><path d="m53 27v5a3 3 0 0 1 -6 0v-5z" fill="#cd2a00"/><path d="m53 27v5a3 3 0 0 1 -3 3v-8z" fill="#ab2300"/><path d="m47 27v5a3 3 0 0 1 -6 0v-5z" fill="#fee9ab"/><path d="m18 41h28v8h-28z" fill="#46f8ff"/><path d="m41 27v5a3 3 0 0 1 -6 0v-5z" fill="#cd2a00"/><path d="m40 11c0 6-8 16-8 16s-8-10-8-16a8 8 0 0 1 16 0z" fill="#ff3051"/><path d="m40 11c0 6-8 16-8 16s-.85-1.06-2-2.7c2.36-3.39 6-9.25 6-13.3a8.006 8.006 0 0 0 -6-7.75 8.239 8.239 0 0 1 2-.25 8 8 0 0 1 8 8z" fill="#cd2a00"/><circle cx="32" cy="11" fill="#fee9ab" r="4"/><path d="m36 11a4 4 0 0 1 -4 4 3.756 3.756 0 0 1 -1.5-.3 3.988 3.988 0 0 0 0-7.4 3.756 3.756 0 0 1 1.5-.3 4 4 0 0 1 4 4z" fill="#ffde55"/><path d="m35 27v5a3 3 0 0 1 -6 0v-5z" fill="#fee9ab"/><path d="m29 27v5a3 3 0 0 1 -6 0v-5z" fill="#cd2a00"/><path d="m23 27v5a3 3 0 0 1 -6 0v-5z" fill="#fee9ab"/><path d="m17 27v5a3 3 0 0 1 -6 0v-5z" fill="#cd2a00"/><path d="m12.24 7.76-2.83 1.41-1.41 2.83-1.41-2.83-2.83-1.41 2.83-1.42 1.41-2.83 1.41 2.83z" fill="#ebbf00"/><path d="m12.24 7.76-2.83 1.41-1.41 2.83v-8.49l1.41 2.83z" fill="#cca400"/><path d="m61.24 11.76-2.83 1.41-1.41 2.83v-8.49l1.41 2.83z" fill="#cca400"/><path d="m47 27v5a3 3 0 0 1 -3 3v-8z" fill="#ffde55"/><path d="m41 27v5a3 3 0 0 1 -3 3v-8z" fill="#ab2300"/><path d="m35 27v5a3 3 0 0 1 -3 3v-8z" fill="#ffde55"/><path d="m29 27v5a3 3 0 0 1 -3 3v-8z" fill="#ab2300"/><path d="m17 27v5a3 3 0 0 1 -3 3v-8z" fill="#ab2300"/><path d="m23 27v5a3 3 0 0 1 -3 3v-8z" fill="#ffde55"/><path d="m42 41h4v8h-4z" fill="#00d7df"/><path d="m51 54.95v-19.09a4 4 0 0 0 3-3.86v-5a1 1 0 0 0 -1-1h-18.99c2.3-3.14 6.99-10.15 6.99-15a9 9 0 0 0 -18 0c0 4.85 4.69 11.86 6.99 15h-18.99a1 1 0 0 0 -1 1v5a4 4 0 0 0 3 3.86v19.09c-6.46 1.51-11 3.88-11 7.05h2c0-2.92 10.65-7 28-7s28 4.08 28 7h2c0-3.17-4.54-5.54-11-7.05zm-9-26.95h4v4a2 2 0 0 1 -4 0zm-6 0h4v4a2 2 0 0 1 -4 0zm-11-17a7 7 0 0 1 14 0c0 4.51-5.03 11.7-7 14.35-1.97-2.65-7-9.84-7-14.35zm9 17v4a2 2 0 0 1 -4 0v-4zm-10 0h4v4a2 2 0 0 1 -4 0zm-6 0h4v4a2 2 0 0 1 -4 0zm-6 4v-4h4v4a2 2 0 0 1 -4 0zm37 22.52a91.252 91.252 0 0 0 -17-1.52 91.252 91.252 0 0 0 -17 1.52v-18.66a4.054 4.054 0 0 0 2-1.24 3.951 3.951 0 0 0 6 0 3.951 3.951 0 0 0 6 0 3.951 3.951 0 0 0 6 0 3.951 3.951 0 0 0 6 0 3.951 3.951 0 0 0 6 0 4.054 4.054 0 0 0 2 1.24zm-1-22.52v-4h4v4a2 2 0 0 1 -4 0z"/><path d="m46 40h-28a1 1 0 0 0 -1 1v8a1 1 0 0 0 1 1h28a1 1 0 0 0 1-1v-8a1 1 0 0 0 -1-1zm-1 8h-26v-6h26z"/><path d="m3.31 8.652 2.53 1.265 1.265 2.53a1 1 0 0 0 1.79 0l1.265-2.53 2.53-1.265a1 1 0 0 0 0-1.789l-2.53-1.263-1.26-2.533a1.043 1.043 0 0 0 -1.79 0l-1.27 2.533-2.53 1.263a1 1 0 0 0 0 1.789zm3.723-1.414a1 1 0 0 0 .447-.447l.52-1.04.52 1.04a1 1 0 0 0 .447.447l1.039.519-1.039.52a1 1 0 0 0 -.447.447l-.52 1.04-.52-1.04a1 1 0 0 0 -.447-.447l-1.039-.52z"/><path d="m52.31 12.652 2.53 1.265 1.265 2.53a1 1 0 0 0 1.79 0l1.265-2.53 2.53-1.265a1 1 0 0 0 0-1.789l-2.53-1.263-1.26-2.533a1.043 1.043 0 0 0 -1.79 0l-1.27 2.533-2.53 1.265a1 1 0 0 0 0 1.789zm3.723-1.414a1 1 0 0 0 .447-.447l.52-1.04.52 1.04a1 1 0 0 0 .447.447l1.039.519-1.039.52a1 1 0 0 0 -.447.447l-.52 1.04-.52-1.04a1 1 0 0 0 -.447-.447l-1.039-.52z"/><path d="m37 11a5 5 0 1 0 -5 5 5.006 5.006 0 0 0 5-5zm-8 0a3 3 0 1 1 3 3 3 3 0 0 1 -3-3z"/></g></svg>