<svg height="512" viewBox="0 0 64 64" width="512" xmlns="http://www.w3.org/2000/svg"><g id="lock-key-security-password-locked"><path d="m15 27h34v34h-34z" fill="#ffb655"/><path d="m42 27h7v34h-7z" fill="#ff9811"/><g fill="#a78966"><path d="m43 51h6v6h-6z"/><path d="m43 41h6v6h-6z"/><path d="m43 31h6v6h-6z"/></g><path d="m46 16v11h-4v-10a10 10 0 0 0 -20 0v10h-4v-11a13 13 0 0 1 13-13h2a13 13 0 0 1 13 13z" fill="#898890"/><path d="m46 16v11h-2v-11a13 13 0 0 0 -13-13h2a13 13 0 0 1 13 13z" fill="#57565c"/><path d="m38 53a4 4 0 1 1 -6-3.45v-6.55h-4v-4h4v-4h-6v-4h10v18.55a4 4 0 0 1 2 3.45z" fill="#e0e0e2"/><path d="m38 53a4 4 0 0 1 -4 4 3.756 3.756 0 0 1 -1.5-.3 3.982 3.982 0 0 0 .5-7.15v-18.55h3v18.55a4 4 0 0 1 2 3.45z" fill="#c6c5ca"/><path d="m46 31h3v6h-3z" fill="#806749"/><path d="m46 41h3v6h-3z" fill="#806749"/><path d="m46 51h3v6h-3z" fill="#806749"/><path d="m49 26h-2v-10a14.015 14.015 0 0 0 -14-14h-2a14.015 14.015 0 0 0 -14 14v10h-2a1 1 0 0 0 -1 1v34a1 1 0 0 0 1 1h34a1 1 0 0 0 1-1v-34a1 1 0 0 0 -1-1zm-30-10a12.01 12.01 0 0 1 12-12h2a12.01 12.01 0 0 1 12 12v10h-2v-9a11 11 0 0 0 -22 0v9h-2zm22 1v9h-18v-9a9 9 0 0 1 18 0zm7 39h-4v-4h4zm0-10h-4v-4h4zm0-10h-4v-4h4zm0-6h-5a1 1 0 0 0 -1 1v6a1 1 0 0 0 1 1h5v2h-5a1 1 0 0 0 -1 1v6a1 1 0 0 0 1 1h5v2h-5a1 1 0 0 0 -1 1v6a1 1 0 0 0 1 1h5v2h-32v-32h32z"/><path d="m37 49.02v-18.02a1 1 0 0 0 -1-1h-10a1 1 0 0 0 -1 1v4a1 1 0 0 0 1 1h5v2h-3a1 1 0 0 0 -1 1v4a1 1 0 0 0 1 1h3v5.02a5 5 0 1 0 6 0zm-3 6.98a3.009 3.009 0 0 1 -3-3 2.966 2.966 0 0 1 1.5-2.58 1 1 0 0 0 .5-.87v-6.55a1 1 0 0 0 -1-1h-3v-2h3a1 1 0 0 0 1-1v-4a1 1 0 0 0 -1-1h-5v-2h8v17.55a1 1 0 0 0 .5.87 2.966 2.966 0 0 1 1.5 2.58 3.009 3.009 0 0 1 -3 3z"/></g></svg>