<svg height="512" viewBox="0 0 64 64" width="512" xmlns="http://www.w3.org/2000/svg"><g id="luggage-travel-wheels-bag-overseas"><path d="m56.31 32.66-5.65 5.65-5.66-11.31z" fill="#ff3051"/><path d="m56.31 32.66-2 2-7.31-3.66-2-4z" fill="#cd2a00"/><path d="m56.31 21.34-11.31 5.66 5.66-11.31z" fill="#ff3051"/><path d="m56.31 21.34-2.67 1.33-2.98-2.98-2.99 5.97-2.67 1.34 5.66-11.31z" fill="#cd2a00"/><path d="m45 27v30h-26v-30a4 4 0 0 1 4-4h18a4 4 0 0 1 4 4z" fill="#a78966"/><path d="m45 27v30h-4v-30a4 4 0 0 0 -4-4h4a4 4 0 0 1 4 4z" fill="#806749"/><circle cx="39" cy="59" fill="#898890" r="2"/><path d="m26 3h12v4h-12z" fill="#ffb655"/><path d="m27 31h10v18h-10z" fill="#fee9ab"/><circle cx="25" cy="59" fill="#898890" r="2"/><path d="m32 31h5v18h-5z" fill="#ffde55"/><path d="m32 3h6v4h-6z" fill="#ff9811"/><path d="m37 30h-10a1 1 0 0 0 -1 1v18a1 1 0 0 0 1 1h10a1 1 0 0 0 1-1v-18a1 1 0 0 0 -1-1zm-1 18h-8v-16h8z"/><path d="m31 26h2v2h-2z"/><path d="m27 26h2v2h-2z"/><path d="m35 26h2v2h-2z"/><path d="m22 27v2h2v-1h1v-2h-2a1 1 0 0 0 -1 1z"/><path d="m41 26h-2v2h1v1h2v-2a1 1 0 0 0 -1-1z"/><path d="m31 52h2v2h-2z"/><path d="m27 52h2v2h-2z"/><path d="m35 52h2v2h-2z"/><path d="m24 51h-2v2a1 1 0 0 0 1 1h2v-2h-1z"/><path d="m40 52h-1v2h2a1 1 0 0 0 1-1v-2h-2z"/><path d="m22 31h2v2h-2z"/><path d="m22 35h2v2h-2z"/><path d="m22 39h2v2h-2z"/><path d="m22 43h2v2h-2z"/><path d="m22 47h2v2h-2z"/><path d="m40 31h2v2h-2z"/><path d="m40 35h2v2h-2z"/><path d="m40 39h2v2h-2z"/><path d="m40 43h2v2h-2z"/><path d="m40 47h2v2h-2z"/><path d="m56.76 31.76-9.52-4.76 9.52-4.76a1.006 1.006 0 0 0 .54-.74.982.982 0 0 0 -.28-.86l-5.66-5.66a.973.973 0 0 0 -.86-.28 1.006 1.006 0 0 0 -.74.54l-4.55 9.09a4.98 4.98 0 0 0 -4.21-2.33h-4v-14h1a1 1 0 0 0 1-1v-4a1 1 0 0 0 -1-1h-12a1 1 0 0 0 -1 1v4a1 1 0 0 0 1 1h1v14h-4a5 5 0 0 0 -5 5v30a1 1 0 0 0 1 1h3.18a3 3 0 1 0 5.64 0h8.36a3 3 0 1 0 5.64 0h3.18a1 1 0 0 0 1-1v-25.76l3.76 7.52a1.006 1.006 0 0 0 .74.54.808.808 0 0 0 .16.01.967.967 0 0 0 .7-.29l5.66-5.66a.982.982 0 0 0 .28-.86 1.006 1.006 0 0 0 -.54-.74zm-5.83-14.39 3.69 3.7-7.38 3.69zm-23.93-13.37h10v2h-10zm8 4v14h-6v-14zm-10 52a1 1 0 1 1 1-1 1 1 0 0 1 -1 1zm14 0a1 1 0 1 1 1-1 1 1 0 0 1 -1 1zm5-4h-24v-29a3.009 3.009 0 0 1 3-3h18a3.009 3.009 0 0 1 3 3zm6.93-19.37-3.69-7.39 7.38 3.69z"/></g></svg>