<svg height="512" viewBox="0 0 64 64" width="512" xmlns="http://www.w3.org/2000/svg"><g id="mountain-cloud-day-nice-sunny"><path d="m61 52v9h-20v-9a19.032 19.032 0 0 0 -9-16.15 18.753 18.753 0 0 1 9-2.82c.33-.02.67-.03 1-.03a19.017 19.017 0 0 1 19 19z" fill="#5eac24"/><path d="m61 52v9h-4v-9a19.016 19.016 0 0 0 -16.98-18.89c.32-.04.65-.06.98-.08s.67-.03 1-.03a19.017 19.017 0 0 1 19 19z" fill="#4e901e"/><path d="m58 9a3 3 0 0 1 0 6h-10a3 3 0 0 1 0-6 2.887 2.887 0 0 1 1.02.19c0-.06-.02-.13-.02-.19a4 4 0 0 1 8 0c0 .06-.02.13-.02.19a2.887 2.887 0 0 1 1.02-.19z" fill="#57a4ff"/><path d="m41 52v9h-38v-9a19 19 0 0 1 19-19c.33 0 .67.01 1 .02a19.031 19.031 0 0 1 18 18.98z" fill="#91dc5a"/><path d="m41 33v.03a18.753 18.753 0 0 0 -9 2.82 18.981 18.981 0 0 0 -9-2.83v-.02a9 9 0 0 1 18 0z" fill="#ff9811"/><path d="m41 33v.03a18.874 18.874 0 0 0 -3.13.43 9 9 0 0 0 -8.87-7.46 8.853 8.853 0 0 0 -3.38.66 8.994 8.994 0 0 1 15.38 6.34z" fill="#cc7400"/><path d="m16 7a3 3 0 0 1 0 6h-10a3 3 0 0 1 0-6 2.887 2.887 0 0 1 1.02.19c0-.06-.02-.13-.02-.19a4 4 0 0 1 8 0c0 .06-.02.13-.02.19a2.887 2.887 0 0 1 1.02-.19z" fill="#57a4ff"/><path d="m19 10a3 3 0 0 1 -3 3h-4a3 3 0 0 0 0-6 2.887 2.887 0 0 0 -1.02.19c0-.06.02-.13.02-.19a3.98 3.98 0 0 0 -2-3.46 3.994 3.994 0 0 1 6 3.46c0 .06-.02.13-.02.19a2.887 2.887 0 0 1 1.02-.19 3 3 0 0 1 3 3z" fill="#006df0"/><path d="m61 12a3 3 0 0 1 -3 3h-4a3 3 0 0 0 0-6 2.887 2.887 0 0 0 -1.02.19c0-.06.02-.13.02-.19a3.98 3.98 0 0 0 -2-3.46 3.994 3.994 0 0 1 6 3.46c0 .06-.02.13-.02.19a2.887 2.887 0 0 1 1.02-.19 3 3 0 0 1 3 3z" fill="#006df0"/><path d="m41 52v9h-4v-9a19.016 19.016 0 0 0 -16.98-18.89c.32-.04.65-.06.98-.08s.67-.03 1-.03a19.017 19.017 0 0 1 19 19z" fill="#5eac24"/><path d="m31 15h2v4h-2z"/><path d="m23.5 17.009h2v4h-2z" transform="matrix(.866 -.5 .5 .866 -6.222 14.798)"/><path d="m18.009 22.5h2v4h-2z" transform="matrix(.5 -.866 .866 .5 -11.713 28.714)"/><path d="m37.5 18.009h4v2h-4z" transform="matrix(.5 -.866 .866 .5 3.29 43.716)"/><path d="m42.99 23.5h4v2h-4z" transform="matrix(.866 -.5 .5 .866 -6.223 25.773)"/><path d="m6 14h10a4 4 0 1 0 -.1-8 5 5 0 0 0 -9.8 0 4 4 0 1 0 -.1 8zm0-6a1.958 1.958 0 0 1 .677.129 1 1 0 0 0 1.341-.984c-.001-.033-.018-.114-.018-.145a3 3 0 0 1 6-.036c0 .031-.017.148-.018.181a1 1 0 0 0 1.341.984 1.958 1.958 0 0 1 .677-.129 2 2 0 0 1 0 4h-10a2 2 0 0 1 0-4z"/><path d="m48 16h10a4 4 0 1 0 -.1-8 5 5 0 0 0 -9.8 0 4 4 0 1 0 -.1 8zm0-6a1.958 1.958 0 0 1 .677.129 1 1 0 0 0 1.341-.984c-.001-.033-.018-.114-.018-.145a3 3 0 0 1 6-.036c0 .031-.017.148-.018.181a1 1 0 0 0 1.341.984 1.958 1.958 0 0 1 .677-.129 2 2 0 0 1 0 4h-10a2 2 0 0 1 0-4z"/><path d="m56.14 37.86a19.83 19.83 0 0 0 -14.14-5.86h-.05a10 10 0 0 0 -19.9 0h-.05a20.02 20.02 0 0 0 -20 20v9a1 1 0 0 0 1 1h58a1 1 0 0 0 1-1v-9a19.83 19.83 0 0 0 -5.86-14.14zm-24.14-12.86a8.009 8.009 0 0 1 7.94 7.12 19.807 19.807 0 0 0 -7.95 2.58 19.788 19.788 0 0 0 -7.94-2.59 8.011 8.011 0 0 1 7.95-7.11zm8 35h-36v-8a18 18 0 0 1 36 0zm20 0h-18v-8a19.958 19.958 0 0 0 -8.12-16.05 18 18 0 0 1 26.12 16.05z"/></g></svg>