<svg height="512" viewBox="0 0 64 64" width="512" xmlns="http://www.w3.org/2000/svg"><g id="mountain-sun-nature-natural-view"><path d="m22 27-19 34h38z" fill="#acabb1"/><path d="m23.58 29.83 4.84 8.66-1.76 1.51-2.33-2-2.34 2-2.33-2-2.33 2-1.75-1.51 6.42-11.49z" fill="#e0e0e2"/><path d="m42 27-10 17.89 9 16.11h20z" fill="#898890"/><path d="m61 61h-4l-17-30.42 2-3.58z" fill="#57565c"/><path d="m58 9a3 3 0 0 1 0 6h-10a3 3 0 0 1 0-6 2.887 2.887 0 0 1 1.02.19c0-.06-.02-.13-.02-.19a4 4 0 0 1 8 0c0 .06-.02.13-.02.19a2.887 2.887 0 0 1 1.02-.19z" fill="#57a4ff"/><path d="m42 27 6.42 11.49-1.76 1.51-2.33-2-2.34 2-2.33-2-2.33 2-1.75-1.51z" fill="#e0e0e2"/><path d="m48.42 38.49-1.76 1.51-2.33-2-.12.11-4.21-7.53 2-3.58z" fill="#c6c5ca"/><path d="m41 61h-4l-17-30.42 2-3.58z" fill="#787680"/><path d="m28.42 38.49-1.76 1.51-2.33-2-.12.11-4.21-7.53 2-3.58z" fill="#c6c5ca"/><path d="m40.42 29.83-4.84 8.66-3.58 6.4-3.58-6.4-4.84-8.66a9 9 0 0 1 16.84 0z" fill="#ff9811"/><path d="m40.42 29.83-2.1 3.76a8.986 8.986 0 0 0 -8.32-5.59 8.885 8.885 0 0 0 -6.1 2.4l-.32-.57a9 9 0 0 1 16.84 0z" fill="#cc7400"/><path d="m16 7a3 3 0 0 1 0 6h-10a3 3 0 0 1 0-6 2.887 2.887 0 0 1 1.02.19c0-.06-.02-.13-.02-.19a4 4 0 0 1 8 0c0 .06-.02.13-.02.19a2.887 2.887 0 0 1 1.02-.19z" fill="#57a4ff"/><path d="m19 10a3 3 0 0 1 -3 3h-4a3 3 0 0 0 0-6 2.887 2.887 0 0 0 -1.02.19c0-.06.02-.13.02-.19a3.98 3.98 0 0 0 -2-3.46 3.994 3.994 0 0 1 6 3.46c0 .06-.02.13-.02.19a2.887 2.887 0 0 1 1.02-.19 3 3 0 0 1 3 3z" fill="#006df0"/><path d="m61 12a3 3 0 0 1 -3 3h-4a3 3 0 0 0 0-6 2.887 2.887 0 0 0 -1.02.19c0-.06.02-.13.02-.19a3.98 3.98 0 0 0 -2-3.46 3.994 3.994 0 0 1 6 3.46c0 .06-.02.13-.02.19a2.887 2.887 0 0 1 1.02-.19 3 3 0 0 1 3 3z" fill="#006df0"/><path d="m61.87 60.51-19-34a1 1 0 0 0 -1.74 0l-.67 1.19a9.973 9.973 0 0 0 -16.93 0l-.66-1.19a1.037 1.037 0 0 0 -1.74 0l-19 34a.994.994 0 0 0 .01 1 1.012 1.012 0 0 0 .86.49h58a1.012 1.012 0 0 0 .86-.49.994.994 0 0 0 .01-1zm-19.87-31.46 5.15 9.21-.49.42-1.68-1.44a1 1 0 0 0 -1.3 0l-1.69 1.44-1.68-1.44a1 1 0 0 0 -1.3 0l-1.68 1.44-.48-.42zm-10-4.05a8.03 8.03 0 0 1 7.3 4.78l-7.3 13.06-7.3-13.06a8.019 8.019 0 0 1 7.3-4.78zm-10 4.05 5.15 9.21-.49.42-1.68-1.44a1 1 0 0 0 -1.3 0l-1.69 1.44-1.68-1.44a1 1 0 0 0 -1.3 0l-1.68 1.44-.48-.41zm-17.3 30.95 11.15-19.95.83.71a1 1 0 0 0 1.3 0l1.68-1.44 1.68 1.44a1 1 0 0 0 1.3 0l1.69-1.44 1.68 1.44a1 1 0 0 0 1.3 0l.83-.72 11.16 19.96zm36.89 0-8.45-15.11 2.71-4.84.83.71a1 1 0 0 0 1.3 0l1.68-1.44 1.68 1.44a1 1 0 0 0 1.3 0l1.69-1.44 1.68 1.44a1 1 0 0 0 1.3 0l.83-.72 11.16 19.96z"/><path d="m31 15h2v4h-2z"/><path d="m23.5 17.009h2v4h-2z" transform="matrix(.866 -.5 .5 .866 -6.222 14.796)"/><path d="m18.009 22.5h2v4h-2z" transform="matrix(.5 -.866 .866 .5 -11.713 28.714)"/><path d="m37.5 18.009h4v2h-4z" transform="matrix(.5 -.866 .866 .5 3.29 43.716)"/><path d="m42.99 23.5h4v2h-4z" transform="matrix(.866 -.5 .5 .866 -6.223 25.773)"/><path d="m6 14h10a4 4 0 1 0 -.1-8 5 5 0 0 0 -9.8 0 4 4 0 1 0 -.1 8zm0-6a1.972 1.972 0 0 1 .678.129 1 1 0 0 0 1.34-.985c-.001-.032-.018-.113-.018-.144a3 3 0 0 1 6-.036c0 .032-.017.148-.018.18a1 1 0 0 0 1.34.985 1.972 1.972 0 0 1 .678-.129 2 2 0 0 1 0 4h-10a2 2 0 0 1 0-4z"/><path d="m48 16h10a4 4 0 1 0 -.1-8 5 5 0 0 0 -9.8 0 4 4 0 1 0 -.1 8zm0-6a1.972 1.972 0 0 1 .678.129 1 1 0 0 0 1.34-.985c-.001-.032-.018-.113-.018-.144a3 3 0 0 1 6-.036c0 .032-.017.148-.018.18a1 1 0 0 0 1.34.985 1.972 1.972 0 0 1 .678-.129 2 2 0 0 1 0 4h-10a2 2 0 0 1 0-4z"/></g></svg>