<svg height="512" viewBox="0 0 64 64" width="512" xmlns="http://www.w3.org/2000/svg"><g id="passport-travelling-enjoin-world-travel"><path d="m55 11v48a2.006 2.006 0 0 1 -2 2h-40v-52h40a2.006 2.006 0 0 1 2 2z" fill="#806749"/><path d="m55 11v48a2.006 2.006 0 0 1 -2 2h-4a2.006 2.006 0 0 0 2-2v-48a2.006 2.006 0 0 0 -2-2h4a2.006 2.006 0 0 1 2 2z" fill="#5f4d37"/><path d="m49 30h-9a34.757 34.757 0 0 0 -.68-6.97 14.9 14.9 0 0 0 5.38-3.53 14.916 14.916 0 0 1 4.3 10.5z" fill="#006df0"/><path d="m40 30h9a14.916 14.916 0 0 1 -4.3 10.5 14.9 14.9 0 0 0 -5.38-3.53 34.757 34.757 0 0 0 .68-6.97z" fill="#57a4ff"/><path d="m34 15a14.921 14.921 0 0 1 10.7 4.5 14.9 14.9 0 0 1 -5.38 3.53c-1.01-4.77-3.02-8.03-5.32-8.03z" fill="#57a4ff"/><path d="m44.7 40.5a14.921 14.921 0 0 1 -10.7 4.5c2.3 0 4.31-3.26 5.32-8.03a14.9 14.9 0 0 1 5.38 3.53z" fill="#006df0"/><path d="m40 30h-12a34.757 34.757 0 0 1 .68-6.97 15.074 15.074 0 0 0 10.64 0 34.757 34.757 0 0 1 .68 6.97z" fill="#57a4ff"/><path d="m28 30h12a34.757 34.757 0 0 1 -.68 6.97 15.074 15.074 0 0 0 -10.64 0 34.757 34.757 0 0 1 -.68-6.97z" fill="#006df0"/><path d="m34 15c2.3 0 4.31 3.26 5.32 8.03a15.074 15.074 0 0 1 -10.64 0c1.01-4.77 3.02-8.03 5.32-8.03z" fill="#006df0"/><path d="m39.32 36.97c-1.01 4.77-3.02 8.03-5.32 8.03s-4.31-3.26-5.32-8.03a15.074 15.074 0 0 1 10.64 0z" fill="#57a4ff"/><path d="m13 3h20v6h-20z" fill="#fee9ab"/><path d="m34 15c-2.3 0-4.31 3.26-5.32 8.03a14.9 14.9 0 0 1 -5.38-3.53 14.921 14.921 0 0 1 10.7-4.5z" fill="#57a4ff"/><path d="m28.68 36.97c1.01 4.77 3.02 8.03 5.32 8.03a14.921 14.921 0 0 1 -10.7-4.5 14.9 14.9 0 0 1 5.38-3.53z" fill="#006df0"/><path d="m23.3 19.5a14.9 14.9 0 0 0 5.38 3.53 34.757 34.757 0 0 0 -.68 6.97h-9a14.916 14.916 0 0 1 4.3-10.5z" fill="#006df0"/><path d="m28.68 36.97a14.9 14.9 0 0 0 -5.38 3.53 14.916 14.916 0 0 1 -4.3-10.5h9a34.757 34.757 0 0 0 .68 6.97z" fill="#57a4ff"/><path d="m9 9h4v52h-4z" fill="#ffb655"/><path d="m28 3h5v6h-5z" fill="#ffde55"/><path d="m53 8h-19v-5a1 1 0 0 0 -1-1h-20a1 1 0 0 0 -1 1v5h-3a1 1 0 0 0 -1 1v52a1 1 0 0 0 1 1h44a3.009 3.009 0 0 0 3-3v-48a3.009 3.009 0 0 0 -3-3zm-41 52h-2v-50h2zm2-56h18v4h-18zm40 55a1 1 0 0 1 -1 1h-39v-50h39a1 1 0 0 1 1 1z"/><path d="m34 14a16 16 0 1 0 16 16 16.019 16.019 0 0 0 -16-16zm4.145 8.378a14.122 14.122 0 0 1 -8.29 0c.968-3.95 2.611-6.378 4.145-6.378s3.177 2.428 4.145 6.378zm-.245-5.814a13.974 13.974 0 0 1 5.33 2.936 13.846 13.846 0 0 1 -3.211 2.128 16.527 16.527 0 0 0 -2.119-5.064zm-8.88 12.436a33.819 33.819 0 0 1 .428-4.661 16 16 0 0 0 9.1 0 33.819 33.819 0 0 1 .432 4.661zm9.96 2a33.819 33.819 0 0 1 -.428 4.661 16 16 0 0 0 -9.1 0 33.819 33.819 0 0 1 -.432-4.661zm-11-9.372a13.846 13.846 0 0 1 -3.21-2.128 13.974 13.974 0 0 1 5.33-2.936 16.527 16.527 0 0 0 -2.119 5.064zm-.444 2a35.48 35.48 0 0 0 -.515 5.372h-6.97a13.918 13.918 0 0 1 3.313-8.079 15.9 15.9 0 0 0 4.173 2.711zm-.515 7.372a35.48 35.48 0 0 0 .516 5.368 15.9 15.9 0 0 0 -4.173 2.711 13.918 13.918 0 0 1 -3.313-8.079zm.96 7.372a16.527 16.527 0 0 0 2.119 5.064 13.974 13.974 0 0 1 -5.33-2.936 13.846 13.846 0 0 1 3.211-2.128zm1.874-.75a14.122 14.122 0 0 1 8.29 0c-.968 3.95-2.611 6.378-4.145 6.378s-3.177-2.428-4.145-6.378zm10.164.75a13.846 13.846 0 0 1 3.211 2.128 13.974 13.974 0 0 1 -5.33 2.936 16.527 16.527 0 0 0 2.119-5.064zm.444-2a35.48 35.48 0 0 0 .516-5.372h6.97a13.918 13.918 0 0 1 -3.313 8.079 15.9 15.9 0 0 0 -4.173-2.711zm.516-7.372a35.48 35.48 0 0 0 -.516-5.368 15.9 15.9 0 0 0 4.173-2.711 13.918 13.918 0 0 1 3.313 8.079z"/><path d="m26 50h16v2h-16z"/><path d="m22 54h24v2h-24z"/></g></svg>