<svg height="512" viewBox="0 0 64 64" width="512" xmlns="http://www.w3.org/2000/svg"><g id="photo-view-natural-picture-memory"><path d="m3 11h58v42h-58z" fill="#a78966"/><path d="m57 11h4v42h-4z" fill="#806749"/><path d="m7 15h50v34h-50z" fill="#57a4ff"/><path d="m53 15h4v34h-4z" fill="#006df0"/><path d="m57 43v6h-22v-6a13.938 13.938 0 0 0 -3-8.65 14 14 0 0 1 25 8.65z" fill="#5eac24"/><path d="m57 43v6h-4v-6a14.006 14.006 0 0 0 -12-13.86 14.6 14.6 0 0 1 2-.14 14 14 0 0 1 14 14z" fill="#4e901e"/><path d="m38.98 29.58a14.041 14.041 0 0 0 -6.98 4.77 13.109 13.109 0 0 0 -1.1-1.25 14.044 14.044 0 0 0 -5.88-3.51 6.992 6.992 0 0 1 13.96-.01z" fill="#ff9811"/><path d="m38.98 29.58a14.626 14.626 0 0 0 -2.17.86 6.974 6.974 0 0 0 -6.81-5.44 6.845 6.845 0 0 0 -3.84 1.16 6.986 6.986 0 0 1 12.82 3.42z" fill="#cc7400"/><path d="m35 43v6h-28v-6a14 14 0 0 1 23.9-9.9 13.109 13.109 0 0 1 1.1 1.25 13.938 13.938 0 0 1 3 8.65z" fill="#91dc5a"/><path d="m35 43v6h-4v-6a14.006 14.006 0 0 0 -12-13.86 14.6 14.6 0 0 1 2-.14 14 14 0 0 1 14 14z" fill="#5eac24"/><path d="m61 10h-58a1 1 0 0 0 -1 1v42a1 1 0 0 0 1 1h58a1 1 0 0 0 1-1v-42a1 1 0 0 0 -1-1zm-1 42h-56v-40h56z"/><path d="m57 14h-50a1 1 0 0 0 -1 1v34a1 1 0 0 0 1 1h50a1 1 0 0 0 1-1v-34a1 1 0 0 0 -1-1zm-23 34h-26v-5a13 13 0 0 1 26 0zm-7.89-19.09a5.989 5.989 0 0 1 11.78-.01 14.759 14.759 0 0 0 -5.89 3.94 15.088 15.088 0 0 0 -5.89-3.93zm29.89 19.09h-20v-5a14.9 14.9 0 0 0 -2.72-8.59 12.983 12.983 0 0 1 22.72 8.59zm0-12.46a15.4 15.4 0 0 0 -2.39-3.15 14.96 14.96 0 0 0 -10.61-4.39 14.709 14.709 0 0 0 -3.19.35 7.978 7.978 0 0 0 -15.62 0 14.64 14.64 0 0 0 -3.19-.35 15 15 0 0 0 -13 7.55v-19.55h48z"/><path d="m31 18h2v2h-2z"/><path d="m25.5 19.473h2v2h-2z" transform="matrix(.866 -.5 .5 .866 -6.686 15.99)"/><path d="m21.474 23.5h2v2h-2z" transform="matrix(.5 -.866 .866 .5 -9.981 31.712)"/><path d="m40.526 23.5h2v2h-2z" transform="matrix(.866 -.5 .5 .866 -6.687 24.041)"/><path d="m36.5 19.473h2v2h-2z" transform="matrix(.5 -.866 .866 .5 1.021 42.716)"/></g></svg>