<svg height="512" viewBox="0 0 64 64" width="512" xmlns="http://www.w3.org/2000/svg"><g id="sea-ocean-sun-holiday-natural"><path d="m62 33.8v27c-10 0-10-3.6-20-3.6s-10 3.6-20 3.6-10-3.6-20-3.6v-27c10 0 10 3.6 20 3.6s10-3.6 20-3.6 10 3.6 20 3.6z" fill="#57a4ff"/><path d="m62 33.8v4c-10 0-10-3.6-20-3.6s-10 3.6-20 3.6-10-3.6-20-3.6v-4c10 0 10 3.6 20 3.6s10-3.6 20-3.6 10 3.6 20 3.6z" fill="#006df0"/><circle cx="32" cy="15" fill="#ff9811" r="6"/><path d="m38 15a6 6 0 0 1 -6 6 5.8 5.8 0 0 1 -2-.35 5.99 5.99 0 0 0 0-11.3 5.8 5.8 0 0 1 2-.35 6 6 0 0 1 6 6z" fill="#cc7400"/><path d="m39 15a7 7 0 1 0 -7 7 7.008 7.008 0 0 0 7-7zm-7 5a5 5 0 1 1 5-5 5.006 5.006 0 0 1 -5 5z"/><path d="m31 2h2v4h-2z"/><path d="m25.5 3.474h2v4h-2z" transform="matrix(.866 -.5 .5 .866 .814 13.984)"/><path d="m21.473 7.5h2v4h-2z" transform="matrix(.5 -.866 .866 .5 3.009 24.212)"/><path d="m19 14h4v2h-4z"/><path d="m20.474 19.5h4v2h-4z" transform="matrix(.866 -.5 .5 .866 -7.238 13.981)"/><path d="m24.5 23.526h4v2h-4z" transform="matrix(.5 -.866 .866 .5 -7.989 35.216)"/><path d="m31 24h2v4h-2z"/><path d="m36.5 22.526h2v4h-2z" transform="matrix(.866 -.5 .5 .866 -7.239 22.037)"/><path d="m40.526 18.5h2v4h-2z" transform="matrix(.5 -.866 .866 .5 3.009 46.212)"/><path d="m41 14h4v2h-4z"/><path d="m39.526 8.5h4v2h-4z" transform="matrix(.866 -.5 .5 .866 .814 22.037)"/><path d="m35.5 4.473h4v2h-4z" transform="matrix(.5 -.866 .866 .5 14.012 35.215)"/><path d="m52.338 31.059a26.386 26.386 0 0 0 -10.338-1.859 26.386 26.386 0 0 0 -10.34 1.859 24.39 24.39 0 0 1 -9.66 1.741 24.378 24.378 0 0 1 -9.66-1.741 26.385 26.385 0 0 0 -10.34-1.859v2a24.378 24.378 0 0 1 9.66 1.741 26.385 26.385 0 0 0 10.34 1.859 26.386 26.386 0 0 0 10.339-1.859 24.39 24.39 0 0 1 9.661-1.741 24.39 24.39 0 0 1 9.662 1.741 26.386 26.386 0 0 0 10.338 1.859v-2a24.39 24.39 0 0 1 -9.662-1.741z"/><path d="m42 56.2a26.386 26.386 0 0 0 -10.34 1.859 24.39 24.39 0 0 1 -9.66 1.741 24.378 24.378 0 0 1 -9.66-1.741 26.385 26.385 0 0 0 -10.34-1.859v2a24.378 24.378 0 0 1 9.66 1.741 26.385 26.385 0 0 0 10.34 1.859 26.386 26.386 0 0 0 10.339-1.859 24.39 24.39 0 0 1 9.661-1.741 24.39 24.39 0 0 1 9.662 1.741 26.386 26.386 0 0 0 10.338 1.859v-2a24.39 24.39 0 0 1 -9.662-1.741 26.386 26.386 0 0 0 -10.338-1.859z"/><path d="m20.665 39.12a8.314 8.314 0 0 0 -4.1.979 6.363 6.363 0 0 1 -3.235.781 6.354 6.354 0 0 1 -3.23-.78 8.3 8.3 0 0 0 -4.1-.98v2a6.354 6.354 0 0 1 3.232.781 8.308 8.308 0 0 0 4.1.979 8.311 8.311 0 0 0 4.1-.979 6.366 6.366 0 0 1 3.235-.781 6.366 6.366 0 0 1 3.233.78 8.311 8.311 0 0 0 4.1.979v-2a6.366 6.366 0 0 1 -3.235-.781 8.311 8.311 0 0 0 -4.1-.978z"/><path d="m20.565 50.1a6.363 6.363 0 0 1 -3.235.781 6.354 6.354 0 0 1 -3.23-.781 8.3 8.3 0 0 0 -4.1-.98v2a6.354 6.354 0 0 1 3.232.781 8.308 8.308 0 0 0 4.1.979 8.311 8.311 0 0 0 4.1-.979 6.366 6.366 0 0 1 3.235-.781 6.366 6.366 0 0 1 3.233.78 8.311 8.311 0 0 0 4.1.979v-2a6.366 6.366 0 0 1 -3.235-.781 8.311 8.311 0 0 0 -4.1-.979 8.314 8.314 0 0 0 -4.1.981z"/><path d="m46.665 39.12a8.314 8.314 0 0 0 -4.1.979 7.084 7.084 0 0 1 -6.467 0 8.3 8.3 0 0 0 -4.098-.979v2a6.354 6.354 0 0 1 3.232.781 9.071 9.071 0 0 0 8.2 0 7.09 7.09 0 0 1 6.47 0 8.311 8.311 0 0 0 4.1.979v-2a6.366 6.366 0 0 1 -3.235-.781 8.311 8.311 0 0 0 -4.102-.979z"/><path d="m46.565 50.1a7.084 7.084 0 0 1 -6.467 0 8.3 8.3 0 0 0 -4.098-.98v2a6.354 6.354 0 0 1 3.232.781 9.071 9.071 0 0 0 8.2 0 7.09 7.09 0 0 1 6.47 0 8.311 8.311 0 0 0 4.1.979v-2a6.366 6.366 0 0 1 -3.235-.781 9.075 9.075 0 0 0 -8.2 0z"/></g></svg>