<svg height="512" viewBox="0 0 64 64" width="512" xmlns="http://www.w3.org/2000/svg"><g id="service-hotel-food-eating-room"><path d="m59 57a2.006 2.006 0 0 1 2 2 2.015 2.015 0 0 1 -2 2h-54a2.006 2.006 0 0 1 -2-2 2.015 2.015 0 0 1 2-2z" fill="#a78966"/><path d="m59 57h-54a26.013 26.013 0 0 1 24-25.92c.66-.05 1.33-.08 2-.08h2c.67 0 1.34.03 2 .08a25.991 25.991 0 0 1 24 25.92z" fill="#fee9ab"/><path d="m61 59a2.015 2.015 0 0 1 -2 2h-5a2.015 2.015 0 0 0 2-2 2.006 2.006 0 0 0 -2-2h5a2.006 2.006 0 0 1 2 2z" fill="#806749"/><path d="m59 57h-5a25.991 25.991 0 0 0 -24-25.92l-.5-.03c.5-.03 1-.05 1.5-.05h2c.67 0 1.34.03 2 .08a25.991 25.991 0 0 1 24 25.92z" fill="#ffd422"/><path d="m57.24 19.76-2.83 1.41-1.41 2.83-1.41-2.83-2.83-1.41 2.83-1.42 1.41-2.83 1.41 2.83z" fill="#ffd422"/><path d="m57.24 19.76-2.83 1.41-1.41 2.83v-8.49l1.41 2.83z" fill="#ebbf00"/><path d="m35 30v1.08c-.66-.05-1.33-.08-2-.08h-2c-.67 0-1.34.03-2 .08v-1.08a3 3 0 0 1 6 0z" fill="#ffb655"/><path d="m35 30v1.08c-.66-.05-1.33-.08-2-.08h-1v-1a2.993 2.993 0 0 0 -.88-2.12 3.3 3.3 0 0 0 -.62-.48 3.026 3.026 0 0 1 1.5-.4 3 3 0 0 1 3 3z" fill="#ff9811"/><path d="m15.24 19.76-2.83 1.41-1.41 2.83-1.41-2.83-2.83-1.41 2.83-1.42 1.41-2.83 1.41 2.83z" fill="#ffd422"/><path d="m15.24 19.76-2.83 1.41-1.41 2.83v-8.49l1.41 2.83z" fill="#ebbf00"/><path d="m59.98 56.18a27.044 27.044 0 0 0 -23.98-26.01v-.17a4 4 0 0 0 -8 0v.17a27.044 27.044 0 0 0 -23.98 26.01 2.991 2.991 0 0 0 .98 5.82h54a2.991 2.991 0 0 0 .98-5.82zm-29.98-26.18a2.006 2.006 0 0 1 2-2 2.015 2.015 0 0 1 2 2v.03c-.33-.02-.66-.03-1-.03h-2c-.34 0-.67.01-1 .03zm1 2h2a25.035 25.035 0 0 1 24.98 24h-51.96a25.035 25.035 0 0 1 24.98-24zm28 28h-54a1 1 0 0 1 0-2h54a1 1 0 0 1 0 2z"/><path d="m9.574 48.636 1.862.728a21.236 21.236 0 0 1 10.974-11.526l-.82-1.824a23.248 23.248 0 0 0 -12.016 12.622z"/><path d="m8.381 52.818 1.967.364c.118-.64.268-1.283.445-1.909l-1.923-.546c-.195.686-.36 1.39-.489 2.091z"/><path d="m6.31 20.652 2.531 1.265 1.264 2.53a1 1 0 0 0 1.79 0l1.264-2.53 2.531-1.265a1 1 0 0 0 0-1.789l-2.53-1.263-1.26-2.533a1.043 1.043 0 0 0 -1.79 0l-1.27 2.533-2.53 1.263a1 1 0 0 0 0 1.789zm3.723-1.415a.992.992 0 0 0 .447-.447l.52-1.039.52 1.039a.992.992 0 0 0 .447.447l1.04.521-1.04.519a.994.994 0 0 0 -.447.448l-.52 1.039-.52-1.039a.994.994 0 0 0 -.447-.448l-1.04-.519z"/><path d="m48.31 20.652 2.531 1.265 1.264 2.53a1 1 0 0 0 1.79 0l1.264-2.53 2.531-1.265a1 1 0 0 0 0-1.789l-2.53-1.263-1.26-2.533a1.043 1.043 0 0 0 -1.79 0l-1.27 2.533-2.53 1.265a1 1 0 0 0 0 1.789zm3.723-1.415a.992.992 0 0 0 .447-.447l.52-1.039.52 1.039a.992.992 0 0 0 .447.447l1.04.521-1.04.519a.994.994 0 0 0 -.447.448l-.52 1.039-.52-1.039a.994.994 0 0 0 -.447-.448l-1.04-.519z"/></g></svg>