<svg id="Capa_1" enable-background="new 0 0 512 512" height="512" viewBox="0 0 512 512" width="512" xmlns="http://www.w3.org/2000/svg"><g id="ship-boat-sea-ocean-challenge"><path d="m484.88 164.88c8.449 15.523 2.715 34.956-12.808 43.405-2.078 1.131-4.276 2.029-6.552 2.675l-70.4 20.16c11.76-6.56 20.88-50.24 20.88-103.12 0-57.44-10.72-104-24-104h16z" fill="#ff3051"/><path d="m465.52 210.96-70.4 20.16c3.875-2.892 6.755-6.918 8.24-11.52l30.16-8.64c17-4.83 26.866-22.528 22.035-39.528-.647-2.276-1.544-4.474-2.675-6.552l-38.16-69.92c-3.12-41.2-12.08-70.96-22.72-70.96h16l76.88 140.88c8.449 15.523 2.715 34.956-12.808 43.405-2.078 1.131-4.276 2.028-6.552 2.675z" fill="#cd2a00"/><path d="m472 344-10.64 32h-410.72l-10.64-32z" fill="#fee9ab"/><path d="m461.36 376-10.72 32h-389.28l-10.72-32z" fill="#806749"/><path d="m450.64 408-10.64 32h-368l-10.64-32z" fill="#fee9ab"/><path d="m440 440-11.2 33.52c-9.43-2.249-19.107-3.297-28.8-3.12-48.08 0-48.08 19.2-96.08 19.2s-48-19.2-95.92-19.2-48 19.2-96 19.2c-8.102.088-16.193-.609-24.16-2.08l-15.84-47.52z" fill="#806749"/><path d="m472 344-10.64 32h-40l10.64-32z" fill="#ffd422"/><path d="m461.36 376-10.72 32h-40l10.72-32z" fill="#5f4d37"/><path d="m450.64 408-10.64 32h-40l10.64-32z" fill="#ffd422"/><path d="m440 440-11.2 33.52c-9.43-2.249-19.107-3.297-28.8-3.12-3.68 0-7.12.08-10.24.32l10.24-30.72z" fill="#5f4d37"/><path d="m392 232v112h-24v-144-176h24z" fill="#806749"/><path d="m368 24v176l-96-16z" fill="#ffeb99"/><path d="m368 24v176l-32-5.36v-117.28z" fill="#ffd422"/><path d="m361.128 19.848-96 160c-2.27 3.791-1.037 8.704 2.754 10.973.858.514 1.804.862 2.79 1.027l89.328 14.928v129.224h-320c-4.418.003-7.997 3.588-7.994 8.006.001.857.139 1.709.41 2.522l43.112 129.344c-2.936-1.048-5.736-2.16-8.576-3.296-16.022-7.119-33.424-10.594-50.952-10.176v16c15.491-.389 30.872 2.694 45.016 9.024 16.032 7.123 33.446 10.599 50.984 10.176 17.529.416 34.933-3.057 50.96-10.168 14.15-6.339 29.54-9.425 45.04-9.032 15.491-.389 30.872 2.694 45.016 9.024 16.01 7.112 33.398 10.587 50.912 10.176 17.537.416 34.948-3.056 50.984-10.168 14.166-6.342 29.573-9.428 45.088-9.032 15.502-.392 30.895 2.694 45.048 9.032 16.026 7.106 33.426 10.578 50.952 10.168v-16c-15.502.392-30.895-2.694-45.048-9.032-3.808-1.52-7.696-3.04-11.928-4.44l40.56-121.6c1.396-4.192-.87-8.722-5.062-10.118-.813-.271-1.665-.409-2.522-.41h-72v-97.968l67.744-19.36c21.24-6.072 33.537-28.214 27.464-49.454-.809-2.83-1.928-5.562-3.336-8.146l-76.848-140.904c-1.402-2.57-4.096-4.169-7.024-4.168h-40c-.666-.032-2.243-.019-3.927.902-1.756.962-2.626 2.364-2.945 2.946zm62.872 108.152c-.009-22.952-1.933-45.864-5.752-68.496l59.584 109.224c6.346 11.637 2.057 26.215-9.58 32.561-1.554.848-3.198 1.521-4.9 2.007l-50.648 14.472c10.856-30.312 11.296-81.768 11.296-89.768zm-362.232 256h388.456l-5.336 16h-377.784zm10.664 32h367.12l-5.336 16h-356.448zm327.568-211.576v-152.832c5.773 25.048 8.46 50.708 8 76.408.461 25.706-2.226 51.371-8 76.424zm-115.096-26.4 75.096-125.144v137.672zm91.096 21.976v-168h8v304h-8zm-8 152h92.896l-5.336 16h-399.128l-5.328-16zm-19.024 120.576c-14.155 6.33-29.547 9.413-45.048 9.024-15.491.388-30.872-2.695-45.016-9.024-16.01-7.114-33.398-10.589-50.912-10.176-17.533-.417-34.94 3.059-50.968 10.176-14.149 6.331-29.536 9.414-45.032 9.024-6.045.03-12.085-.374-18.072-1.208l-10.824-32.392h345.776l-5.408 16.216c-7.758-1.27-15.611-1.878-23.472-1.816-17.551-.422-34.977 3.054-51.024 10.176z"/></g></svg>