<svg height="512" viewBox="0 0 64 64" width="512" xmlns="http://www.w3.org/2000/svg"><g id="sign-right-left-arrow-location"><path d="m47 49v-5h-30v-8h30v-5l14 9z" fill="#ffb655"/><path d="m61 40h-44v-4h30v-5z" fill="#ff9811"/><path d="m47 14v8h-30v5l-14-9 14-9v5z" fill="#fee9ab"/><path d="m47 14v4h-44l14-9v5z" fill="#ffd422"/><g fill="#806749"><path d="m34 44v17.59c-1.92-.09-2.11-1.08-4-1.18v-16.41z"/><path d="m30 22h4v14h-4z"/><path d="m30 3h4v11h-4z"/></g><path d="m57.38 59.4a5.312 5.312 0 0 0 -2.77.71 3.737 3.737 0 0 1 -3.7 0 5.312 5.312 0 0 0 -2.77-.71 5.411 5.411 0 0 0 -2.77.71 3.344 3.344 0 0 1 -1.85.49 3.283 3.283 0 0 1 -1.84-.49 5.758 5.758 0 0 0 -5.54 0 3.6 3.6 0 0 1 -1.14.43v-15.54h11v4a.993.993 0 0 0 1 1 .949.949 0 0 0 .54-.16l14-9a1 1 0 0 0 0-1.68l-14-9a1 1 0 0 0 -1.54.84v4h-11v-12h12a1 1 0 0 0 1-1v-8a1 1 0 0 0 -1-1h-12v-10a1 1 0 0 0 -1-1h-4a1 1 0 0 0 -1 1v10h-11v-4a1 1 0 0 0 -1.54-.84l-14 9a1 1 0 0 0 0 1.68l14 9a.949.949 0 0 0 .54.16.993.993 0 0 0 1-1v-4h11v12h-12a1 1 0 0 0 -1 1v8a1 1 0 0 0 1 1h12v14.44a5.326 5.326 0 0 0 -2.09.67 3.344 3.344 0 0 1 -1.85.49 3.283 3.283 0 0 1 -1.84-.49 5.473 5.473 0 0 0 -2.77-.71 5.411 5.411 0 0 0 -2.77.71 3.308 3.308 0 0 1 -1.84.49 3.319 3.319 0 0 1 -1.85-.49 5.411 5.411 0 0 0 -2.77-.71 5.368 5.368 0 0 0 -2.76.71 3.344 3.344 0 0 1 -1.85.49 3.283 3.283 0 0 1 -1.84-.49 5.411 5.411 0 0 0 -2.77-.71v2a3.283 3.283 0 0 1 1.84.49 5.411 5.411 0 0 0 2.77.71 5.411 5.411 0 0 0 2.77-.71 3.283 3.283 0 0 1 1.84-.49 3.344 3.344 0 0 1 1.85.49 5.411 5.411 0 0 0 2.77.71 5.4 5.4 0 0 0 2.76-.71 3.344 3.344 0 0 1 1.85-.49 3.283 3.283 0 0 1 1.84.49 5.411 5.411 0 0 0 2.77.71 5.312 5.312 0 0 0 2.77-.71 3.4 3.4 0 0 1 1.85-.49 3.283 3.283 0 0 1 1.84.49 5.758 5.758 0 0 0 5.54 0 3.319 3.319 0 0 1 1.85-.49 3.283 3.283 0 0 1 1.84.49 5.758 5.758 0 0 0 5.54 0 3.319 3.319 0 0 1 1.85-.49 3.43 3.43 0 0 1 1.85.49 5.758 5.758 0 0 0 5.54 0 3.737 3.737 0 0 1 3.7 0 5.312 5.312 0 0 0 2.77.71v-2a3.4 3.4 0 0 1 -1.85-.49 5.312 5.312 0 0 0 -2.77-.71zm-26.38-55.4h2v9h-2zm-14 17a1 1 0 0 0 -1 1v3.17l-11.15-7.17 11.15-7.17v3.17a1 1 0 0 0 1 1h29v6zm16 2v12h-2v-12zm0 37.37a3.935 3.935 0 0 1 -.55-.26 5.757 5.757 0 0 0 -1.45-.57v-14.54h2zm-15-17.37v-6h29a1 1 0 0 0 1-1v-3.17l11.15 7.17-11.15 7.17v-3.17a1 1 0 0 0 -1-1z"/></g></svg>