<svg height="512" viewBox="0 0 64 64" width="512" xmlns="http://www.w3.org/2000/svg"><g id="smartphone-check_in-location-map-pin" data-name="smartphone-check in-location-map-pin"><rect fill="#898890" height="58" rx="2" width="36" x="14" y="3"/><path d="m50 5v54a2.006 2.006 0 0 1 -2 2h-4a2.006 2.006 0 0 0 2-2v-54a2.006 2.006 0 0 0 -2-2h4a2.006 2.006 0 0 1 2 2z" fill="#57565c"/><path d="m18 11h28v46h-28z" fill="#46f8ff"/><path d="m42 11h4v46h-4z" fill="#00d7df"/><path d="m38 24c0 3.49-3.52 9.53-6 13-2.48-3.47-6-9.51-6-13a6 6 0 0 1 12 0z" fill="#ff3051"/><circle cx="32" cy="24" fill="#e0e0e2" r="2"/><circle cx="32" cy="7" fill="#bddbff" r="1"/><path d="m38 24a13.646 13.646 0 0 1 -1.36 5 48.139 48.139 0 0 1 -4.64 8c-.63-.88-1.32-1.92-2-3.04a42.944 42.944 0 0 0 2.64-4.96 13.646 13.646 0 0 0 1.36-5 5.981 5.981 0 0 0 -4-5.65 5.8 5.8 0 0 1 2-.35 6 6 0 0 1 6 6z" fill="#cd2a00"/><path d="m34 24a2 2 0 0 1 -3 1.73 2 2 0 0 0 0-3.46 2 2 0 0 1 3 1.73z" fill="#c6c5ca"/><path d="m48 2h-32a3.009 3.009 0 0 0 -3 3v54a3.009 3.009 0 0 0 3 3h32a3.009 3.009 0 0 0 3-3v-54a3.009 3.009 0 0 0 -3-3zm1 57a1 1 0 0 1 -1 1h-32a1 1 0 0 1 -1-1v-54a1 1 0 0 1 1-1h32a1 1 0 0 1 1 1z"/><path d="m46 10h-28a1 1 0 0 0 -1 1v46a1 1 0 0 0 1 1h28a1 1 0 0 0 1-1v-46a1 1 0 0 0 -1-1zm-1 46h-26v-44h26z"/><circle cx="32" cy="7" r="2"/><path d="m32 38a1 1 0 0 0 .814-.42c.633-.888 6.186-8.815 6.186-13.58a7 7 0 0 0 -14 0c0 4.765 5.553 12.692 6.186 13.58a1 1 0 0 0 .814.42zm0-19a5.006 5.006 0 0 1 5 5c0 2.646-2.46 7.441-5 11.239-2.54-3.8-5-8.593-5-11.239a5.006 5.006 0 0 1 5-5z"/><path d="m35 24a3 3 0 1 0 -3 3 3 3 0 0 0 3-3zm-4 0a1 1 0 1 1 1 1 1 1 0 0 1 -1-1z"/><path d="m25.293 50.707 1.414-1.414-2.293-2.293h5.586v-2h-5.586l2.293-2.293-1.414-1.414-4 4a1 1 0 0 0 0 1.414z"/><path d="m37.293 42.707 2.293 2.293h-5.586v2h5.586l-2.293 2.293 1.414 1.414 4-4a1 1 0 0 0 0-1.414l-4-4z"/></g></svg>