<?xml version="1.0" standalone="no"?>
<!DOCTYPE svg PUBLIC "-//W3C//DTD SVG 20010904//EN"
 "http://www.w3.org/TR/2001/REC-SVG-20010904/DTD/svg10.dtd">
<svg version="1.0" xmlns="http://www.w3.org/2000/svg"
 width="600.000000pt" height="600.000000pt" viewBox="0 0 600.000000 600.000000"
 preserveAspectRatio="xMidYMid meet">
<metadata>
Created by potrace 1.16, written by Peter Selinger 2001-2019
</metadata>
<g transform="translate(0.000000,600.000000) scale(0.100000,-0.100000)"
fill="#000000" stroke="none">
<path d="M743 5685 c-204 -55 -375 -228 -428 -432 -23 -86 -23 -4420 0 -4506
54 -207 225 -378 432 -432 49 -13 233 -15 1305 -15 l1248 0 0 300 0 300 -1200
0 -1200 0 0 2100 0 2100 1200 0 1200 0 0 300 0 300 -1252 -1 c-1043 0 -1262
-3 -1305 -14z"/>
<path d="M3900 3900 l0 -600 -1200 0 -1200 0 0 -300 0 -300 1200 0 1200 0 0
-600 c0 -330 2 -600 5 -600 10 0 1795 1492 1795 1500 0 8 -1785 1500 -1795
1500 -3 0 -5 -270 -5 -600z"/>
</g>
</svg>
